<?xml version="1.0" standalone="no"?>
<!DOCTYPE svg PUBLIC "-//W3C//DTD SVG 20010904//EN"
 "http://www.w3.org/TR/2001/REC-SVG-20010904/DTD/svg10.dtd">
<svg version="1.0" xmlns="http://www.w3.org/2000/svg"
 width="700.000000pt" height="700.000000pt" viewBox="0 0 700.000000 700.000000"
 preserveAspectRatio="xMidYMid meet">
<metadata>
Created by potrace 1.11, written by Peter Selinger 2001-2013
</metadata>
<g transform="translate(0.000000,700.000000) scale(0.100000,-0.100000)"
fill="#000000" stroke="none">
<path d="M3534 6825 c2 -6 -2 -12 -10 -12 -7 0 -11 4 -8 9 3 4 -4 8 -15 8 -11
0 -23 -4 -26 -10 -3 -5 -12 -10 -18 -10 -7 0 -6 4 3 10 12 8 10 10 -9 10 -15
0 -21 -5 -18 -13 3 -8 -1 -14 -8 -14 -7 0 -11 7 -8 16 3 9 -5 5 -16 -9 -13
-15 -19 -18 -15 -8 4 13 1 16 -14 13 -12 -2 -29 -8 -39 -13 -10 -6 -21 -11
-25 -12 -42 -9 -86 -35 -81 -46 4 -10 0 -12 -11 -8 -11 4 -19 -1 -25 -17 -5
-13 -10 -18 -10 -10 -1 10 -8 7 -26 -9 -15 -14 -23 -30 -20 -40 5 -11 3 -12
-6 -3 -9 9 -15 9 -25 -2 -8 -7 -14 -18 -14 -24 0 -5 -9 -16 -20 -24 -11 -8
-17 -16 -14 -20 3 -3 -3 -3 -15 0 -22 6 -29 -11 -8 -21 6 -3 3 -4 -9 -1 -14 4
-31 -6 -57 -32 -20 -20 -37 -40 -37 -45 0 -5 -4 -6 -10 -3 -9 5 -15 -16 -11
-38 1 -5 -3 -6 -9 -2 -6 3 -7 12 -4 18 4 7 -22 -15 -57 -48 -35 -33 -61 -61
-56 -63 13 -6 7 -21 -7 -16 -14 5 -86 -51 -86 -68 0 -5 5 -6 11 -2 8 4 8 0 0
-15 -13 -24 -23 -28 -15 -6 4 8 1 15 -4 15 -14 0 -43 -41 -36 -52 3 -4 -2 -5
-10 -2 -19 7 -22 -12 -3 -20 6 -2 1 -4 -13 -3 -17 1 -25 -4 -28 -18 -2 -11 -9
-24 -14 -30 -8 -7 -9 -5 -5 8 4 9 5 17 3 17 -6 0 -106 -103 -106 -108 0 -3 9
3 20 13 26 23 26 11 1 -14 -12 -12 -21 -15 -23 -9 -5 13 -28 2 -28 -13 0 -6 4
-8 8 -5 5 3 9 -1 9 -9 0 -8 -4 -12 -8 -9 -4 2 -9 1 -12 -3 -2 -5 -2 -2 -1 5 5
17 -3 15 -25 -7 -11 -11 -17 -22 -14 -25 4 -3 0 -6 -9 -6 -8 0 -24 -10 -36
-23 -16 -17 -19 -26 -10 -35 8 -8 6 -10 -9 -6 -22 6 -72 -45 -74 -74 -1 -10
-4 -7 -8 7 -4 14 -12 26 -20 29 -10 3 -11 0 -1 -19 10 -22 10 -23 -4 -6 -8 11
-12 25 -9 33 3 8 1 14 -5 14 -6 0 -37 27 -69 60 -40 42 -64 59 -76 56 -14 -3
-16 -1 -7 8 7 10 6 17 -7 27 -9 8 -14 9 -10 2 4 -6 2 -15 -4 -19 -7 -4 -9 -3
-6 3 8 13 -29 63 -46 63 -7 0 -6 -4 3 -10 8 -5 10 -10 3 -10 -6 0 -22 13 -35
29 -13 15 -31 31 -39 34 -12 5 -12 6 1 6 8 1 24 -11 37 -26 12 -16 22 -23 23
-16 0 16 -71 73 -92 73 -10 0 -18 5 -18 11 0 5 6 7 13 3 6 -3 -1 5 -18 20 -16
14 -35 25 -40 26 -6 0 -16 9 -23 20 -7 12 -17 18 -22 15 -5 -3 -14 3 -20 12
-11 17 -11 17 -6 -1 4 -12 -4 -7 -24 14 -26 28 -32 31 -47 19 -14 -12 -16 -12
-11 2 5 12 0 17 -18 17 -14 0 -21 -5 -17 -11 3 -6 1 -7 -5 -3 -6 4 -9 12 -6
20 3 7 -1 13 -8 14 -7 0 -28 2 -45 3 -18 1 -33 7 -33 13 0 6 -5 4 -11 -4 -8
-11 -12 -12 -16 -2 -2 6 -12 12 -21 12 -15 0 -15 -2 -2 -10 22 -14 3 -12 -21
3 -17 10 -23 10 -26 0 -3 -7 -9 -13 -14 -13 -6 0 -7 5 -3 11 4 7 1 10 -7 7 -8
-3 -13 -11 -11 -17 1 -7 -2 -10 -8 -6 -6 3 -8 10 -5 15 8 13 -61 6 -78 -9 -9
-7 -22 -9 -29 -5 -7 5 -21 10 -30 11 -13 2 -16 -2 -11 -15 6 -14 4 -15 -8 -5
-11 9 -54 12 -54 3 0 -1 -11 -4 -25 -6 -13 -3 -29 -9 -34 -14 -6 -6 -18 -10
-28 -10 -12 0 -16 -5 -11 -17 6 -16 5 -16 -10 -4 -15 12 -17 11 -17 -3 0 -9
-5 -16 -11 -16 -5 0 -7 4 -4 10 3 5 0 7 -9 4 -9 -3 -12 -12 -8 -22 5 -15 4
-16 -13 -2 -17 14 -18 13 -12 -4 7 -17 6 -17 -10 -5 -15 12 -16 12 -11 -2 3
-9 2 -22 -4 -30 -8 -11 -9 -10 -4 4 6 19 -2 21 -24 7 -13 -9 -13 -11 0 -21 12
-8 10 -9 -9 -4 -19 6 -23 4 -18 -9 3 -8 1 -18 -5 -22 -7 -4 -8 -3 -4 4 4 7 1
12 -9 12 -9 0 -15 -7 -13 -16 2 -10 -4 -19 -12 -21 -13 -4 -13 -3 0 6 10 7 11
11 3 11 -7 0 -23 -16 -36 -35 -13 -19 -28 -32 -33 -27 -4 4 -2 -1 5 -11 11
-14 12 -20 2 -30 -10 -9 -11 -8 -6 6 4 10 2 17 -4 17 -6 0 -11 -7 -11 -16 0
-8 -4 -13 -9 -10 -8 5 -14 -2 -21 -29 -2 -5 -10 -15 -19 -21 -13 -10 -13 -14
-2 -28 12 -14 12 -16 -2 -10 -21 8 -49 -58 -43 -98 2 -16 0 -26 -5 -22 -5 3
-7 11 -3 17 3 7 -2 3 -10 -7 -9 -11 -16 -25 -16 -30 0 -6 5 -4 10 4 8 13 10
13 10 -2 0 -9 -4 -18 -9 -20 -6 -1 -12 -15 -15 -30 -2 -15 -7 -32 -10 -37 -3
-5 1 -11 9 -15 17 -6 20 -26 4 -26 -5 0 -7 5 -4 10 3 6 1 10 -4 10 -7 0 -11
-38 -11 -106 0 -90 3 -109 18 -120 13 -11 14 -13 1 -9 -11 4 -15 0 -14 -16 1
-13 7 -25 15 -27 8 -3 10 0 5 8 -6 9 -4 11 5 5 10 -6 10 -11 -3 -20 -9 -7 -14
-14 -11 -18 3 -3 7 -12 8 -20 1 -9 11 -24 22 -34 11 -10 15 -15 10 -10 -16 11
-28 8 -19 -5 4 -7 8 -19 9 -26 3 -17 83 -152 91 -152 3 0 2 7 -1 16 -3 9 -2
12 5 9 6 -4 8 -13 5 -21 -3 -8 2 -24 12 -35 36 -43 64 -74 59 -63 -4 6 0 11 8
11 11 0 12 -5 3 -20 -8 -16 -7 -19 4 -14 18 6 43 -8 43 -25 1 -7 7 -12 14 -10
7 1 10 -2 6 -8 -5 -8 -11 -8 -21 1 -7 6 -12 15 -9 19 3 4 -2 10 -10 14 -8 3
-15 2 -15 -2 0 -13 55 -62 68 -62 7 0 12 -5 12 -11 0 -5 -5 -7 -12 -3 -7 4 -8
3 -4 -5 6 -9 11 -9 21 -1 11 9 12 7 8 -8 -2 -11 1 -23 8 -27 7 -5 10 -4 5 3
-3 6 -3 13 2 16 4 2 9 -4 9 -15 2 -24 110 -149 126 -145 7 1 9 1 5 -1 -18 -10
-6 -24 15 -19 12 3 16 3 9 0 -10 -5 -10 -9 0 -22 12 -16 11 -16 -6 -2 -18 14
-19 13 -13 -2 4 -11 2 -15 -6 -12 -7 2 -26 -9 -42 -26 -25 -26 -27 -32 -15
-40 8 -5 10 -10 5 -10 -6 0 -17 6 -24 13 -11 10 -13 9 -8 -5 4 -12 1 -18 -9
-18 -8 0 -17 -7 -20 -15 -4 -8 -11 -12 -17 -8 -5 3 -7 1 -3 -5 3 -6 -3 -13
-14 -17 -18 -6 -24 -17 -21 -37 0 -5 -2 -7 -7 -6 -13 2 -42 -14 -42 -24 0 -6
7 -5 15 2 9 7 18 10 22 6 3 -3 1 -6 -6 -6 -7 0 -10 -4 -6 -9 3 -6 -4 -8 -16
-6 -29 6 -124 -83 -108 -101 7 -8 6 -15 -2 -20 -8 -4 -9 -3 -5 4 10 16 -17 15
-32 0 -14 -14 -16 -32 -2 -23 6 4 7 -1 3 -11 -4 -11 -8 -13 -11 -6 -2 7 -8 12
-14 12 -6 0 -7 -7 -4 -15 3 -10 1 -15 -7 -13 -18 4 -77 -56 -78 -79 0 -11 -3
-13 -6 -5 -4 10 -8 10 -19 1 -20 -16 -17 -30 3 -22 10 3 6 -3 -9 -15 -14 -12
-34 -22 -43 -22 -15 0 -15 -3 -5 -15 11 -13 10 -14 -3 -9 -17 6 -125 -91 -114
-103 8 -8 -21 -43 -36 -43 -6 0 0 9 13 20 13 11 19 20 14 20 -17 0 -91 -89
-82 -98 5 -5 2 -15 -9 -23 -16 -13 -17 -12 -4 4 7 9 9 17 4 17 -14 0 -46 -37
-40 -47 3 -5 -1 -17 -9 -28 -8 -10 -14 -14 -14 -9 0 6 5 15 12 22 8 8 8 12 1
12 -6 0 -17 -10 -26 -22 -8 -13 -24 -33 -36 -45 -12 -13 -17 -25 -11 -28 6 -3
10 -12 10 -18 0 -8 -4 -7 -9 2 -8 12 -12 12 -25 2 -9 -8 -16 -20 -16 -27 0 -8
-5 -14 -11 -14 -5 0 -7 -5 -4 -10 4 -6 12 -7 18 -3 7 4 6 0 -2 -10 -15 -18
-26 -23 -16 -7 3 6 1 10 -4 10 -14 0 -14 -17 -1 -25 13 -8 13 -25 -1 -25 -5 0
-7 6 -4 13 4 6 0 3 -9 -7 -8 -10 -13 -23 -10 -28 3 -5 0 -15 -6 -23 -15 -18 1
-20 18 -3 9 9 9 5 0 -14 -9 -18 -15 -23 -20 -15 -5 7 -8 -1 -9 -18 0 -16 -3
-42 -5 -57 -3 -16 0 -28 6 -28 6 0 8 5 4 12 -5 7 -3 8 6 3 10 -6 9 -11 -4 -21
-16 -11 -16 -13 1 -24 17 -11 17 -11 0 -6 -15 5 -18 1 -15 -17 2 -12 8 -21 14
-20 6 1 11 -5 11 -12 0 -10 -4 -12 -12 -5 -8 7 -12 1 -12 -20 0 -21 5 -30 16
-30 11 0 12 -3 4 -8 -13 -8 -14 -52 0 -52 5 0 5 10 1 23 -3 12 -3 19 1 15 10
-10 15 -59 5 -53 -15 9 17 -65 38 -90 12 -14 22 -30 22 -35 0 -6 5 -10 11 -10
5 0 7 6 3 13 -5 8 -2 8 9 -2 9 -7 17 -19 17 -25 0 -6 -5 -4 -10 4 -5 8 -10 10
-10 4 0 -6 16 -30 36 -53 28 -33 39 -39 46 -29 7 9 8 8 4 -6 -4 -11 0 -26 10
-37 19 -21 40 -26 28 -7 -4 6 -3 8 4 4 6 -3 9 -15 7 -25 -2 -11 5 -27 16 -37
17 -16 22 -16 30 -4 8 12 9 10 4 -7 -4 -15 1 -26 16 -37 12 -8 27 -12 32 -9 6
3 7 1 3 -6 -4 -6 -12 -8 -18 -5 -7 5 -8 2 -4 -5 5 -7 13 -10 20 -8 6 3 20 -1
31 -9 10 -8 14 -14 9 -14 -6 0 -15 5 -22 12 -7 7 -12 9 -12 4 0 -11 27 -36 33
-30 3 3 8 -3 11 -14 4 -11 27 -39 51 -61 25 -23 41 -41 37 -41 -4 0 11 -9 33
-19 22 -11 36 -20 32 -20 -5 -1 -18 4 -30 11 -12 6 6 -17 39 -50 56 -57 86
-79 68 -50 -4 7 -3 8 5 4 6 -4 9 -12 5 -18 -3 -5 16 -32 44 -59 28 -27 47 -49
44 -49 -4 0 7 -9 23 -20 17 -11 27 -20 23 -20 -4 0 9 -16 29 -35 40 -39 48
-43 39 -18 -5 11 1 9 17 -7 25 -27 27 -41 2 -20 -8 7 -15 8 -15 2 0 -15 80
-83 90 -77 6 3 7 -1 4 -9 -4 -9 1 -18 10 -22 9 -3 13 -11 9 -18 -4 -6 7 2 25
19 18 16 32 37 32 45 0 13 1 13 10 0 8 -13 10 -12 10 4 0 11 3 16 7 12 4 -4
15 8 25 26 15 26 17 28 12 8 l-6 -25 23 25 c13 14 30 31 39 39 8 7 2 6 -13 -3
-27 -16 -27 -16 -16 2 7 11 21 19 33 18 12 -1 28 6 36 15 8 8 27 24 42 33 28
19 37 36 17 36 -5 0 -7 -5 -3 -12 4 -7 3 -8 -4 -4 -15 9 -16 8 10 30 18 15 20
16 15 2 -9 -23 10 -20 23 4 6 11 17 20 24 20 20 0 49 37 40 51 -4 8 -3 10 4 5
7 -4 12 -2 12 3 0 6 5 11 11 11 5 0 7 -6 3 -12 -4 -7 5 -2 20 12 15 13 24 30
21 38 -4 12 -3 12 9 3 11 -10 17 -8 28 8 8 12 18 18 23 13 4 -4 5 2 1 13 -5
15 -4 17 4 9 14 -14 91 25 116 59 13 18 15 18 10 3 -5 -14 -2 -17 10 -12 8 3
22 6 30 6 8 0 14 5 14 11 0 5 -5 7 -10 4 -6 -3 -10 -1 -10 4 0 13 17 14 25 2
5 -9 51 -10 70 0 6 2 24 4 41 4 24 -1 31 3 27 15 -2 8 2 5 9 -8 15 -25 30 -20
22 6 -5 14 -4 14 6 0 6 -10 19 -18 28 -18 15 0 15 2 2 10 -8 5 -10 10 -4 10 6
0 17 -7 24 -15 12 -14 15 -14 31 1 18 16 19 16 19 0 0 -10 5 -14 11 -11 6 4 8
14 5 22 -4 8 -1 11 5 8 6 -4 8 -13 5 -21 -3 -8 -1 -14 4 -14 6 0 10 5 10 11 0
8 4 8 14 0 11 -10 20 -10 37 -1 14 8 19 8 15 1 -4 -6 -4 -11 1 -12 4 0 22 -3
38 -5 23 -3 26 -2 15 6 -11 7 -11 10 -2 10 7 0 15 -6 18 -14 7 -19 32 -28 40
-14 5 7 2 8 -6 3 -8 -5 -11 -4 -6 3 4 6 14 8 23 5 11 -4 13 -8 5 -11 -17 -5
-15 -19 4 -26 9 -4 23 -1 31 5 11 9 17 9 26 0 9 -10 8 -11 -6 -5 -13 5 -16 2
-11 -10 4 -10 14 -15 30 -12 13 3 27 0 30 -6 4 -7 2 -8 -4 -4 -7 4 -12 3 -12
-2 0 -17 13 -22 28 -9 13 10 15 9 9 -5 -7 -20 9 -35 16 -16 3 7 6 3 6 -9 1
-13 5 -23 11 -23 5 0 7 8 3 18 -3 9 -3 14 1 10 4 -3 9 -14 10 -24 2 -10 8 -20
14 -22 8 -2 10 3 6 15 -5 14 -4 15 4 4 6 -8 8 -20 5 -27 -2 -6 1 -15 8 -20 7
-4 10 -3 5 4 -3 6 -2 14 4 17 6 4 10 3 9 -2 -4 -25 4 -44 24 -53 21 -11 21
-10 3 4 -11 9 -15 16 -9 16 14 0 34 -25 26 -33 -8 -8 27 -48 36 -42 4 2 13 -1
21 -7 12 -8 12 -9 -2 -4 -10 3 -18 3 -18 1 0 -10 34 -44 40 -40 4 3 16 -5 26
-18 l19 -22 -22 19 c-22 18 -33 10 -14 -9 5 -6 21 -32 36 -60 15 -27 32 -54
39 -60 26 -23 46 -64 34 -71 -6 -4 -8 -3 -5 2 3 5 -3 21 -14 34 -10 14 -19 20
-19 15 0 -6 4 -15 10 -21 5 -5 11 -20 13 -34 2 -13 10 -26 17 -28 8 -3 10 0 5
8 -5 8 -4 11 3 6 6 -4 9 -13 6 -21 -4 -8 -9 -13 -14 -10 -4 2 -5 -7 -2 -20 2
-14 9 -22 15 -18 5 3 7 1 3 -5 -3 -6 -2 -13 4 -17 5 -3 10 -11 10 -18 0 -6 -7
-2 -15 9 -13 18 -14 17 -12 -13 1 -18 5 -33 10 -33 4 0 7 -8 7 -17 0 -14 -2
-15 -9 -4 -6 9 -8 5 -8 -13 0 -14 5 -26 11 -26 8 0 8 -2 0 -8 -15 -9 -29 -146
-14 -137 6 3 8 11 5 16 -4 5 -2 17 4 26 8 15 10 14 7 -7 -1 -14 -9 -36 -18
-50 -19 -29 -26 -79 -13 -99 6 -11 4 -13 -8 -8 -22 8 -22 -9 -1 -21 15 -8 15
-10 0 -15 -10 -4 -15 -3 -11 3 3 6 2 10 -3 10 -5 0 -12 -9 -15 -19 -3 -14 0
-18 12 -15 9 3 6 -1 -6 -7 -24 -13 -31 -30 -10 -25 6 1 9 1 4 -1 -4 -3 -5 -8
-2 -13 3 -4 -3 -7 -13 -6 -9 0 -21 -9 -27 -21 -5 -13 -13 -23 -18 -23 -4 0 -5
-5 -2 -10 4 -6 12 -7 18 -3 7 3 3 -3 -7 -15 -11 -12 -29 -22 -40 -22 -15 0
-17 -3 -8 -9 10 -6 8 -10 -8 -14 -12 -3 -19 -10 -16 -15 3 -6 -1 -13 -10 -16
-9 -3 -14 -12 -11 -19 3 -7 -1 -21 -9 -32 -8 -10 -14 -14 -14 -9 0 6 5 15 12
22 7 7 8 12 2 12 -6 0 -26 -16 -45 -37 -18 -20 -29 -33 -22 -29 6 3 15 1 19
-6 4 -7 4 -10 -1 -6 -7 7 -65 -18 -65 -28 0 -3 4 -3 9 1 5 3 13 0 17 -6 4 -8
3 -9 -4 -5 -12 7 -102 -69 -102 -86 0 -6 8 -4 17 3 16 13 17 12 5 -3 -8 -9
-19 -15 -26 -12 -7 3 -21 -5 -32 -17 -10 -13 -14 -19 -7 -16 6 4 15 2 19 -4 4
-7 3 -9 -4 -5 -16 10 -71 -42 -80 -77 -8 -32 12 -87 31 -87 5 0 5 4 2 10 -3 6
1 7 10 3 13 -4 14 -8 4 -14 -10 -6 -6 -15 16 -38 17 -17 35 -31 40 -31 6 0 3
5 -5 11 -13 9 -13 10 0 6 8 -2 14 -9 13 -15 -2 -6 11 -25 28 -42 23 -22 37
-29 53 -25 19 5 19 5 3 -5 -14 -9 -16 -15 -6 -26 14 -17 43 -19 33 -2 -4 7 -3
8 5 4 9 -6 9 -11 0 -22 -9 -11 -8 -14 6 -14 10 0 16 -2 13 -5 -7 -7 43 -65 56
-65 5 0 2 6 -8 13 -11 8 -16 20 -13 28 4 11 6 10 6 -2 1 -9 8 -19 16 -23 9 -3
12 -12 8 -22 -4 -12 -3 -15 5 -10 7 4 12 1 12 -9 0 -9 5 -13 10 -10 6 3 10 2
10 -4 0 -12 82 -101 93 -101 5 0 5 5 1 11 -4 8 0 8 15 0 25 -14 28 -23 5 -14
-14 5 -15 3 -5 -15 15 -28 32 -37 41 -22 5 8 9 7 13 -5 4 -9 3 -13 -3 -10 -6
3 -10 2 -10 -3 0 -5 11 -15 25 -22 13 -7 22 -16 20 -20 -5 -8 20 -22 39 -24 5
-1 11 -8 13 -16 4 -13 3 -13 -6 0 -6 8 -11 10 -11 5 0 -6 8 -18 19 -26 14 -12
23 -14 37 -6 17 9 18 9 5 -6 -8 -10 -11 -21 -7 -24 4 -4 11 -1 16 7 7 11 10
12 10 2 0 -7 5 -10 12 -6 7 4 8 3 4 -5 -4 -6 -12 -9 -17 -6 -5 4 -9 1 -9 -6 0
-7 8 -9 21 -6 16 4 18 3 8 -9 -8 -10 -8 -14 0 -14 6 0 21 -11 33 -25 15 -17
28 -23 42 -19 17 4 18 3 6 -5 -12 -8 -11 -14 9 -35 14 -14 27 -24 29 -21 3 2
-4 12 -15 22 -10 10 -14 15 -8 11 7 -4 15 -5 18 -2 3 4 9 -5 12 -19 10 -37 88
-100 104 -84 10 9 11 8 6 -5 -7 -19 21 -38 44 -30 9 3 11 0 7 -7 -4 -6 -4 -10
1 -9 4 1 18 -4 31 -11 17 -9 27 -10 37 -1 10 8 15 8 21 -1 5 -8 3 -9 -6 -4 -9
5 -11 4 -6 -4 4 -6 12 -9 17 -5 5 3 17 0 25 -7 11 -9 18 -9 26 -1 7 7 17 12
23 12 5 0 3 -5 -5 -10 -12 -8 -10 -10 10 -11 14 0 34 -2 45 -4 11 -2 28 3 38
12 17 16 17 16 11 -3 -7 -17 -6 -18 11 -4 11 9 16 10 11 3 -4 -7 -2 -13 3 -13
6 0 11 4 11 10 0 5 7 6 17 3 12 -5 14 -3 8 8 -7 12 -6 12 9 -1 16 -13 20 -12
32 5 8 10 14 13 14 7 0 -7 5 -12 11 -12 6 0 8 7 5 16 -5 14 -4 15 9 4 11 -9
18 -10 28 -1 8 6 18 7 22 3 5 -4 5 1 2 11 -4 10 -3 16 3 12 5 -3 25 9 45 26
20 17 39 29 42 25 3 -3 1 -6 -6 -6 -7 0 -9 -5 -6 -10 4 -6 3 -9 -2 -8 -5 2
-21 -7 -37 -19 -16 -13 -26 -23 -22 -23 11 0 86 50 86 58 0 4 10 12 23 17 14
7 21 17 19 30 -3 16 -1 17 11 7 12 -10 16 -9 21 4 3 9 3 21 -1 27 -4 7 2 5 12
-3 17 -14 18 -13 12 2 -4 11 -2 15 6 12 16 -6 71 51 63 64 -4 6 -1 14 5 18 8
4 9 3 5 -4 -4 -7 -1 -12 9 -12 9 0 15 7 13 16 -2 10 4 19 12 21 13 4 13 3 0
-6 -8 -6 -10 -11 -5 -11 11 0 65 54 65 65 0 4 -8 1 -17 -6 -16 -13 -17 -12 -4
4 9 11 18 14 23 9 10 -10 58 31 58 50 0 6 3 9 6 5 4 -3 13 1 22 9 10 10 12 18
5 22 -7 5 -5 12 5 22 14 13 15 12 9 -3 -3 -9 -2 -17 4 -17 5 0 12 7 15 15 4 8
12 15 19 15 12 0 27 22 30 45 0 6 6 9 13 7 13 -2 72 46 72 59 0 5 -8 6 -17 2
-10 -3 -6 3 9 15 14 12 30 22 34 22 4 0 -1 -7 -12 -15 -10 -8 -14 -15 -8 -15
12 0 44 32 44 44 0 4 -5 4 -12 0 -7 -4 -8 -3 -4 4 4 6 13 9 20 6 8 -3 17 0 22
7 4 7 3 10 -4 5 -6 -3 -13 -2 -17 3 -3 6 5 8 19 5 20 -3 26 2 35 27 8 23 15
30 27 25 13 -5 15 -2 11 13 -3 14 -1 18 10 14 21 -8 106 77 92 93 -7 8 -6 15
2 20 8 5 9 3 4 -5 -5 -9 -2 -12 10 -9 10 1 20 9 23 17 3 9 0 11 -7 6 -9 -5 -9
-2 0 13 7 12 17 18 22 15 5 -3 3 -9 -4 -14 -9 -6 -10 -9 -2 -9 12 0 103 89
103 100 0 4 -11 13 -25 20 -13 7 -22 17 -19 22 3 4 -2 8 -10 8 -9 0 -15 5 -13
11 1 6 -16 21 -38 34 -21 12 -41 29 -43 36 -2 9 -1 10 5 3 4 -6 19 -17 33 -24
20 -10 17 -5 -12 24 -20 20 -41 36 -45 36 -4 0 -1 -5 7 -10 8 -5 10 -10 4 -10
-6 0 -18 8 -25 17 -10 11 -10 14 -1 9 23 -14 11 9 -27 51 -26 29 -41 39 -48
32 -8 -8 -13 -7 -18 2 -5 8 -4 10 3 5 7 -4 12 -3 12 2 0 9 -17 31 -97 121 -18
20 -33 42 -33 50 0 8 -7 11 -19 8 -12 -3 -18 1 -18 12 0 34 -3 42 -15 35 -7
-5 -9 -2 -5 9 3 8 -1 21 -8 27 -8 7 -13 16 -10 20 3 5 -2 16 -11 24 -8 9 -12
16 -7 16 4 0 0 7 -10 14 -12 9 -14 16 -7 21 12 7 4 25 -11 25 -6 0 -7 -4 -4
-10 3 -5 1 -10 -4 -10 -17 0 -13 18 7 29 10 6 12 11 4 11 -7 0 -10 5 -7 10 3
6 2 10 -3 10 -11 0 -35 50 -27 58 3 3 5 1 5 -4 0 -6 6 -19 14 -30 13 -17 13
-14 3 26 -7 25 -19 51 -27 58 -13 10 -12 11 5 5 19 -6 19 -5 -2 18 -17 19 -20
28 -11 37 8 8 8 15 -3 28 -9 12 -10 15 -1 10 18 -11 27 21 11 41 -8 9 -9 14
-3 10 7 -4 15 0 18 9 5 12 2 15 -11 10 -16 -5 -16 -4 -3 6 13 12 18 39 10 61
-7 19 -5 33 7 42 14 12 44 95 38 106 -3 4 3 10 13 14 16 7 15 8 -3 15 -19 8
-19 9 2 9 13 1 22 4 21 8 -2 13 14 46 38 78 18 24 20 34 12 50 -10 18 -10 18
5 7 13 -11 18 -10 29 10 7 13 13 29 13 37 0 8 7 16 15 18 13 4 13 3 0 -6 -8
-6 -10 -11 -4 -11 18 0 95 91 87 103 -3 6 -1 7 6 3 6 -4 8 -13 4 -19 -4 -7 0
-6 10 2 19 15 23 36 5 25 -7 -4 -8 -3 -4 4 4 6 13 9 20 6 8 -3 36 9 63 25 28
17 55 31 62 31 6 0 11 5 11 10 0 6 -5 10 -12 10 -6 0 -8 3 -5 6 4 4 12 2 19
-3 8 -7 22 -7 36 -2 26 10 30 21 5 13 -15 -5 -15 -4 -3 4 10 8 18 8 27 0 10
-8 13 -6 13 5 0 9 4 19 10 22 6 4 7 -1 3 -11 -5 -13 -3 -15 8 -8 8 4 24 8 36
9 12 0 25 4 30 9 5 6 2 6 -7 1 -13 -8 -13 -7 -1 8 7 9 19 17 25 16 7 0 6 -2
-2 -6 -22 -9 -2 -22 26 -16 15 3 42 6 60 7 18 0 32 6 32 13 0 7 5 13 11 13 5
0 7 -5 4 -10 -9 -15 88 -12 104 3 11 9 12 9 7 0 -7 -13 8 -18 83 -27 40 -5 42
-4 30 12 -12 15 -12 16 2 5 9 -7 19 -10 22 -6 4 3 13 1 20 -5 8 -7 17 -9 21
-5 4 4 4 0 0 -10 -4 -11 -1 -18 7 -19 27 -2 34 -5 62 -18 15 -7 27 -18 27 -24
0 -6 4 -6 12 2 15 15 49 -3 42 -23 -4 -10 0 -15 11 -15 10 0 13 5 9 12 -4 7
-3 8 4 4 6 -4 9 -13 6 -20 -3 -7 11 -23 30 -37 20 -13 36 -28 36 -32 0 -5 8
-6 18 -3 12 4 25 -2 38 -16 l19 -23 -21 17 c-39 33 -38 18 2 -22 28 -28 45
-38 59 -34 16 4 17 3 5 -5 -13 -9 -9 -17 23 -47 38 -36 62 -41 36 -7 -8 10 5
-1 29 -23 46 -45 59 -69 15 -28 -14 13 -28 22 -31 20 -2 -3 10 -17 28 -33 18
-15 41 -38 53 -51 13 -14 27 -20 39 -16 10 3 18 0 18 -6 0 -6 -4 -8 -10 -5 -5
3 -10 3 -10 0 0 -11 44 -44 58 -45 6 0 12 -5 12 -12 0 -6 9 -3 20 7 21 19 28
41 8 29 -7 -4 -8 -3 -4 5 6 8 12 9 20 2 17 -14 59 32 44 47 -8 8 -4 9 13 5 22
-6 23 -5 10 10 -12 15 -12 17 2 11 16 -6 66 24 67 39 0 5 -4 6 -8 3 -5 -3 -9
1 -9 8 0 8 9 11 25 8 21 -4 23 -2 17 19 -5 19 -4 21 4 9 10 -13 15 -8 12 12 0
4 6 5 14 2 18 -7 20 12 3 20 -7 3 -3 3 10 0 17 -4 22 -1 22 15 0 12 5 21 11
21 5 0 7 -6 3 -13 -5 -7 -1 -6 10 3 17 13 17 14 -1 21 -14 6 -13 8 9 8 15 1
30 6 34 13 5 8 2 9 -10 5 -10 -4 -15 -3 -11 3 3 6 14 10 23 10 9 0 34 17 55
39 35 36 49 59 27 46 -16 -10 -11 1 7 16 11 10 14 10 9 2 -11 -19 9 -16 25 3
8 10 20 29 27 43 7 14 10 17 7 7 -5 -16 -3 -17 10 -6 8 7 12 17 8 23 -3 5 -1
7 4 4 11 -7 83 66 83 84 0 5 4 8 8 5 11 -7 62 46 79 82 7 15 11 19 8 9 -3 -10
-1 -15 5 -12 6 3 10 18 11 33 0 22 2 23 8 9 6 -16 12 -12 46 30 22 26 43 50
48 51 4 2 3 10 -4 18 -10 12 -9 13 4 8 17 -6 47 16 47 35 0 6 5 11 11 11 8 0
7 6 -2 17 -10 12 -11 15 -1 9 20 -12 45 13 31 31 -9 11 -9 12 3 8 9 -4 21 4
32 19 20 32 21 47 1 20 -13 -16 -14 -16 -9 -1 4 10 15 22 26 28 16 8 17 13 7
25 -9 12 -9 13 3 9 9 -4 15 0 15 9 0 9 -6 12 -16 8 -9 -3 -5 4 8 15 20 16 22
23 12 41 -9 17 -9 21 2 17 8 -4 13 5 15 25 1 16 -3 30 -9 30 -6 0 -3 7 6 16 9
9 13 19 9 23 -4 3 -9 0 -11 -7 -3 -6 -9 -10 -13 -7 -5 3 0 15 11 26 11 11 18
24 14 27 -3 4 -10 0 -14 -7 -5 -8 -11 -9 -15 -3 -3 5 1 13 10 16 11 4 14 16
11 46 -2 22 -8 44 -12 48 -5 4 -5 -1 -2 -10 3 -10 3 -20 -2 -22 -11 -7 -10 27
2 42 7 9 7 16 -1 24 -7 7 -12 22 -12 35 0 13 -4 23 -10 23 -5 0 -10 6 -10 14
0 8 -12 24 -27 35 -19 14 -22 19 -8 14 18 -6 18 -5 -2 16 -14 15 -26 20 -35
15 -10 -6 -11 -5 -1 7 10 13 4 24 -36 68 -32 34 -54 51 -62 46 -8 -5 -10 -4
-5 4 4 6 12 8 18 5 7 -5 8 -2 4 5 -5 7 -15 10 -23 7 -8 -4 -11 -2 -7 5 4 6
-16 32 -44 59 -28 26 -48 51 -44 56 4 4 -1 4 -12 0 -13 -4 -17 -2 -13 8 3 8
-3 22 -14 32 -17 16 -22 16 -30 4 -8 -12 -9 -10 -5 6 4 13 -1 27 -16 41 -13
12 -42 41 -65 66 -23 24 -45 42 -48 39 -3 -3 -5 1 -5 9 0 8 -13 26 -30 39 -16
14 -29 28 -30 33 0 10 -40 49 -40 40 -1 -5 -8 5 -16 20 -12 21 -20 27 -37 23
-12 -3 -16 -3 -10 0 16 7 -2 45 -20 43 -7 -1 -19 -1 -27 0 -13 1 -13 3 -1 10
11 7 6 18 -27 51 -26 27 -45 39 -54 35 -10 -6 -10 -5 -1 5 9 10 9 16 -2 26
-18 19 -31 18 -15 -1 7 -8 9 -15 6 -15 -4 0 -14 7 -22 15 -9 8 -11 15 -5 15 6
0 11 5 11 11 0 6 -9 8 -22 4 -14 -4 -18 -3 -11 2 10 7 9 14 -3 31 -17 25 -36
30 -28 7 4 -8 10 -12 15 -9 5 3 9 0 9 -5 0 -6 -4 -11 -10 -11 -12 0 -31 36
-23 44 4 3 -3 15 -14 26 -15 14 -23 16 -26 7 -3 -7 -6 0 -6 16 -1 15 -6 27
-12 27 -5 0 -7 -5 -3 -11 4 -8 0 -8 -15 0 -11 7 -21 17 -21 24 0 8 3 7 9 -2
14 -22 43 5 36 33 -5 16 -4 18 4 7 14 -21 41 3 42 38 1 18 3 21 6 8 4 -18 6
-17 29 4 24 23 34 56 12 43 -7 -4 -8 -3 -4 4 4 6 14 8 23 5 11 -4 14 -3 9 5
-5 8 -2 10 8 6 16 -6 23 10 9 19 -5 2 -3 2 4 1 14 -3 43 22 43 37 0 6 -5 7
-12 3 -6 -4 -8 -3 -5 4 4 5 16 8 27 5 11 -3 20 -1 20 4 0 6 15 26 34 45 27 28
32 38 23 48 -8 9 -8 11 -1 7 16 -9 66 32 60 49 -3 7 0 16 6 20 7 4 8 3 4 -4
-4 -7 -3 -12 2 -12 17 0 22 13 10 27 -8 10 -8 17 -1 24 8 8 13 7 18 -2 5 -8 4
-10 -3 -5 -7 4 -12 2 -12 -3 0 -19 16 -12 37 18 15 19 18 32 12 38 -7 7 -5 12
6 17 10 4 14 2 9 -6 -4 -7 -3 -8 5 -4 6 4 9 12 6 17 -4 5 -1 9 4 9 6 0 11 9
11 19 0 11 5 23 10 26 6 4 7 11 4 17 -4 6 -10 5 -16 -3 -8 -11 -9 -11 -5 1 2
8 13 14 23 12 18 -2 18 -2 -1 14 -16 13 -16 15 -3 11 10 -3 20 -2 23 3 4 6 1
10 -4 10 -6 0 -11 8 -11 18 0 13 2 14 9 4 6 -10 10 -6 14 15 3 15 0 34 -6 42
-10 12 -9 13 2 6 11 -6 13 -4 8 8 -3 9 -3 19 2 21 13 8 12 76 -2 76 -7 0 -3 8
8 17 20 15 19 15 -5 10 l-25 -6 21 17 c16 13 21 26 18 52 -2 19 -4 51 -5 70
-2 19 -10 41 -19 50 -9 8 -11 12 -4 7 8 -5 12 1 12 18 0 21 -3 23 -15 14 -11
-10 -13 -7 -9 17 6 34 -15 80 -34 76 -10 -2 -11 0 -2 11 9 11 6 21 -13 47 -13
18 -22 36 -20 41 3 4 2 9 -3 11 -4 1 -18 20 -31 41 -14 23 -29 36 -37 33 -16
-6 -30 12 -26 34 1 8 -7 21 -19 28 -18 12 -23 12 -31 0 -6 -9 -7 -6 -3 9 5 17
-3 27 -39 52 -24 17 -51 31 -58 31 -7 -1 4 -10 25 -21 20 -11 37 -25 37 -32 0
-8 -2 -9 -8 -1 -4 6 -21 19 -39 28 -17 9 -35 21 -39 27 -4 8 -3 9 4 5 7 -4 12
-2 12 5 0 8 -11 9 -32 5 -27 -5 -30 -4 -14 5 14 9 16 13 5 20 -8 4 -20 3 -28
-4 -12 -9 -13 -9 -8 0 5 7 -2 17 -15 24 -21 11 -22 11 -9 -5 12 -14 12 -16 -3
-10 -9 3 -16 12 -16 20 0 8 -5 14 -11 14 -6 0 -8 -8 -5 -17 4 -12 0 -10 -12 5
-18 24 -50 27 -64 7 -5 -6 -8 -4 -8 6 0 12 -15 15 -76 17 -59 2 -74 0 -68 -10
4 -7 4 -10 -1 -6 -4 4 -15 2 -24 -4 -13 -10 -14 -10 -3 2 13 15 17 34 4 26 -4
-2 -47 -6 -95 -7 -72 -2 -87 -6 -82 -17 4 -11 2 -12 -7 -5 -18 14 -48 12 -48
-3 0 -6 -7 -15 -16 -18 -26 -10 -29 -7 -8 8 22 17 7 16 -43 -4 -30 -11 -38
-21 -34 -43 1 -5 -3 -6 -9 -2 -6 3 -7 11 -4 17 3 5 -12 -2 -35 -17 -22 -15
-38 -31 -35 -36 3 -5 0 -9 -6 -9 -6 0 -8 -5 -4 -12 4 -7 3 -8 -5 -4 -6 4 -8
13 -5 19 4 7 -2 4 -12 -6 -16 -15 -17 -19 -4 -27 8 -5 10 -10 4 -10 -5 0 -15
5 -21 11 -8 8 -14 6 -22 -9 -6 -10 -7 -23 -3 -27 4 -5 1 -5 -5 -1 -7 4 -23 0
-35 -8 -12 -9 -18 -16 -13 -16 6 -1 -2 -8 -17 -16 -16 -8 -28 -23 -28 -34 0
-10 -5 -22 -12 -26 -8 -5 -9 -2 -5 9 3 10 2 17 -3 17 -6 0 -10 -4 -10 -9 0 -5
-16 -19 -35 -32 -19 -13 -35 -28 -35 -32 0 -5 4 -6 8 -3 5 3 9 -1 9 -9 0 -11
-5 -12 -20 -3 -17 9 -19 8 -14 -11 3 -11 0 -24 -5 -28 -6 -3 -8 -1 -4 5 3 6 2
13 -4 17 -5 3 -10 1 -10 -4 0 -6 -6 -11 -14 -11 -8 0 -18 -5 -22 -11 -4 -8 0
-9 15 -4 11 3 21 3 21 -2 0 -5 -12 -10 -26 -11 -35 -3 -56 -21 -49 -41 5 -12
3 -13 -6 -4 -9 9 -15 9 -25 -2 -11 -11 -22 -5 -63 36 -27 27 -56 49 -65 49 -9
0 -16 5 -16 11 0 5 6 7 13 3 6 -4 2 3 -10 14 -12 12 -28 20 -35 19 -7 -2 -10
-2 -5 0 12 7 -3 23 -17 17 -7 -3 -19 3 -27 13 -13 16 -12 17 4 4 9 -8 21 -10
25 -6 4 4 2 10 -4 12 -6 2 -20 11 -30 19 -10 9 -12 12 -4 8 8 -4 -1 8 -20 27
-21 21 -39 31 -46 26 -7 -4 -14 -1 -18 8 -3 9 -2 13 4 10 6 -3 10 -1 10 4 0 6
-9 11 -21 11 -11 0 -17 5 -14 10 3 6 1 10 -5 10 -6 0 -8 5 -5 10 3 6 0 10 -7
10 -7 0 -22 14 -33 30 -13 19 -29 30 -45 31 -14 0 -19 3 -12 6 6 2 12 9 12 14
0 6 -7 6 -18 0 -14 -7 -19 -6 -19 4 0 8 5 11 11 8 6 -4 -14 19 -44 50 -30 31
-59 57 -65 57 -5 0 -1 -7 9 -15 11 -8 16 -15 10 -15 -5 0 -17 7 -27 14 -13 10
-15 15 -5 19 17 6 -35 58 -54 54 -7 -2 -10 -2 -5 0 14 9 7 25 -9 19 -8 -3 -12
-2 -9 4 4 6 -1 17 -10 26 -13 14 -18 14 -32 2 -9 -7 -14 -8 -10 -2 4 7 0 17
-8 24 -7 6 -11 19 -8 28 3 9 3 14 -1 10 -4 -3 -26 14 -48 38 -30 33 -46 43
-62 39 -12 -3 -15 -2 -8 1 6 3 12 10 12 15 0 6 -4 7 -10 4 -5 -3 -10 -2 -10 4
0 5 -10 11 -22 13 -16 2 -22 9 -20 21 3 19 -14 24 -20 5 -3 -7 -7 -5 -11 6 -4
10 -3 15 3 11 6 -3 10 -2 10 2 0 12 -51 48 -70 49 -27 2 -40 13 -33 29 3 8 0
15 -6 15 -6 0 -11 -6 -11 -12 0 -7 -7 -3 -15 9 -8 11 -31 24 -50 27 -20 4 -44
10 -53 13 -13 4 -12 2 3 -11 l20 -16 -20 7 c-11 3 -23 10 -26 15 -9 14 -101
17 -95 3z m-164 -29 c0 -3 -4 -8 -10 -11 -5 -3 -10 -1 -10 4 0 6 5 11 10 11 6
0 10 -2 10 -4z m370 0 c0 -2 -7 -7 -16 -10 -8 -3 -12 -2 -9 4 6 10 25 14 25 6z
m114 -82 c6 -15 4 -15 -11 -3 -10 7 -20 15 -22 16 -2 2 3 3 11 3 9 0 19 -7 22
-16z m133 -126 c-3 -8 -6 -5 -6 6 -1 11 2 17 5 13 3 -3 4 -12 1 -19z m48 -28
c3 -5 1 -10 -4 -10 -6 0 -11 5 -11 10 0 6 2 10 4 10 3 0 8 -4 11 -10z m-1025
-10 c0 -5 -5 -10 -11 -10 -5 0 -7 5 -4 10 3 6 8 10 11 10 2 0 4 -4 4 -10z
m-20 -24 c0 -3 -4 -8 -10 -11 -5 -3 -10 -1 -10 4 0 6 5 11 10 11 6 0 10 -2 10
-4z m-20 -30 c0 -3 -4 -8 -10 -11 -5 -3 -10 -1 -10 4 0 6 5 11 10 11 6 0 10
-2 10 -4z m-80 -68 c0 -6 -3 -9 -6 -6 -3 4 -22 -11 -41 -33 -20 -22 -37 -38
-39 -36 -5 5 69 85 79 86 4 1 7 -4 7 -11z m1324 -36 c3 -5 -1 -9 -9 -9 -8 0
-12 4 -9 9 3 4 7 8 9 8 2 0 6 -4 9 -8z m-2607 -58 c-3 -3 -12 -4 -19 -1 -8 3
-5 6 6 6 11 1 17 -2 13 -5z m-407 -9 c0 -7 -30 -13 -34 -7 -3 4 4 9 15 9 10 1
19 0 19 -2z m1563 -10 c-3 -9 -8 -14 -10 -11 -3 3 -2 9 2 15 9 16 15 13 8 -4z
m1523 -1 c18 -14 18 -14 -6 -3 -31 14 -36 19 -24 19 6 0 19 -7 30 -16z m-3132
-2 c3 -5 -1 -9 -9 -9 -8 0 -12 4 -9 9 3 4 7 8 9 8 2 0 6 -4 9 -8z m1586 -11
c0 -5 -7 -12 -16 -15 -14 -5 -15 -4 -4 9 14 17 20 19 20 6z m-1016 -17 c3 -8
2 -12 -4 -9 -6 3 -10 10 -10 16 0 14 7 11 14 -7z m3791 6 c-3 -5 -12 -10 -18
-10 -7 0 -6 4 3 10 19 12 23 12 15 0z m45 4 c0 -8 -19 -13 -24 -6 -3 5 1 9 9
9 8 0 15 -2 15 -3z m173 -1 c-7 -2 -19 -2 -25 0 -7 3 -2 5 12 5 14 0 19 -2 13
-5z m44 -9 c-3 -3 -12 -4 -19 -1 -8 3 -5 6 6 6 11 1 17 -2 13 -5z m83 -2 c0
-5 -7 -9 -15 -9 -8 0 -12 4 -9 9 3 4 9 8 15 8 5 0 9 -4 9 -8z m-4065 -31 c3
-5 2 -12 -3 -15 -5 -3 -9 1 -9 9 0 17 3 19 12 6z m3543 -5 c-7 -8 -15 -12 -17
-11 -5 6 10 25 20 25 5 0 4 -6 -3 -14z m-938 -46 c6 -11 9 -20 8 -20 -2 0 -11
9 -21 20 -9 11 -13 20 -7 20 5 0 14 -9 20 -20z m890 16 c0 -2 -7 -7 -16 -10
-8 -3 -12 -2 -9 4 6 10 25 14 25 6z m835 -66 c3 -5 1 -10 -4 -10 -6 0 -11 5
-11 10 0 6 2 10 4 10 3 0 8 -4 11 -10z m-1004 -63 c-10 -9 -11 -8 -5 6 3 10 9
15 12 12 3 -3 0 -11 -7 -18z m-571 -52 c0 -5 -5 -3 -10 5 -5 8 -10 20 -10 25
0 6 5 3 10 -5 5 -8 10 -19 10 -25z m-3760 5 c0 -5 -5 -10 -11 -10 -5 0 -7 5
-4 10 3 6 8 10 11 10 2 0 4 -4 4 -10z m5460 -35 c14 -19 14 -19 -2 -6 -10 7
-18 18 -18 24 0 6 1 8 3 6 1 -2 9 -13 17 -24z m-5470 -1 c0 -8 -19 -13 -24 -6
-3 5 1 9 9 9 8 0 15 -2 15 -3z m1318 -24 c7 -11 11 -20 9 -20 -2 0 -12 9 -22
20 -10 11 -14 20 -9 20 5 0 15 -9 22 -20z m2893 -3 c-10 -9 -11 -8 -5 6 3 10
9 15 12 12 3 -3 0 -11 -7 -18z m-4254 -29 c-3 -8 -6 -5 -6 6 -1 11 2 17 5 13
3 -3 4 -12 1 -19z m1646 -3 c-3 -9 -8 -13 -11 -11 -3 3 -10 2 -17 -2 -6 -4 -2
1 8 11 24 21 28 21 20 2z m2267 5 c0 -5 -2 -10 -4 -10 -3 0 -8 5 -11 10 -3 6
-1 10 4 10 6 0 11 -4 11 -10z m-3929 -47 c-12 -20 -14 -14 -5 12 4 9 9 14 11
11 3 -2 0 -13 -6 -23z m5584 7 c-3 -5 -1 -10 6 -10 7 0 10 -3 6 -6 -9 -9 -28
6 -22 17 4 5 8 9 11 9 3 0 2 -4 -1 -10z m-4114 -27 c13 -16 12 -17 -3 -4 -17
13 -22 21 -14 21 2 0 10 -8 17 -17z m121 -2 c-12 -10 -18 -22 -14 -26 4 -5 1
-5 -6 -1 -11 6 -10 12 4 27 9 10 22 19 27 19 6 0 0 -8 -11 -19z m2558 -5 c0
-2 -7 -7 -16 -10 -8 -3 -12 -2 -9 4 6 10 25 14 25 6z m-109 -33 c13 -16 12
-17 -3 -4 -10 7 -18 15 -18 17 0 8 8 3 21 -13z m1577 -5 c10 -12 10 -18 1 -24
-7 -4 -9 -3 -5 4 3 6 2 13 -4 17 -5 3 -10 11 -10 17 0 6 1 9 3 7 1 -2 8 -11
15 -21z m-1523 -18 c-3 -5 -12 -10 -18 -10 -7 0 -6 4 3 10 19 12 23 12 15 0z
m-4115 -14 c0 -2 -8 -10 -17 -17 -16 -13 -17 -12 -4 4 13 16 21 21 21 13z
m-20 -120 c0 -3 -4 -8 -10 -11 -5 -3 -10 -1 -10 4 0 6 5 11 10 11 6 0 10 -2
10 -4z m5705 -85 c3 -5 2 -12 -3 -15 -5 -3 -9 1 -9 9 0 17 3 19 12 6z m-14
-104 c-10 -9 -11 -8 -5 6 3 10 9 15 12 12 3 -3 0 -11 -7 -18z m9 -21 c0 -2 -8
-10 -17 -17 -16 -13 -17 -12 -4 4 13 16 21 21 21 13z m-15 -75 c3 -5 2 -12 -3
-15 -5 -3 -9 1 -9 9 0 17 3 19 12 6z m-5628 -113 c2 -17 0 -19 -7 -8 -5 8 -6
18 -4 22 8 12 10 10 11 -14z m28 -28 c3 -5 1 -10 -4 -10 -6 0 -11 5 -11 10 0
6 2 10 4 10 3 0 8 -4 11 -10z m5525 -76 c0 -8 -19 -13 -24 -6 -3 5 1 9 9 9 8
0 15 -2 15 -3z m-5425 -64 c3 -6 -1 -7 -9 -4 -18 7 -21 14 -7 14 6 0 13 -4 16
-10z m2475 -16 c0 -2 -11 -3 -24 -2 -14 1 -23 5 -20 9 4 7 44 0 44 -7z m107
10 c-3 -3 -12 -4 -19 -1 -8 3 -5 6 6 6 11 1 17 -2 13 -5z m158 -6 c5 4 5 1 1
-5 -9 -16 79 -18 89 -3 3 6 12 10 18 10 7 0 6 -4 -3 -10 -12 -8 -10 -10 8 -10
16 0 21 4 16 13 -6 10 -4 10 7 0 7 -7 37 -13 67 -13 40 0 51 3 46 13 -6 10 -4
10 7 0 15 -15 43 -17 34 -3 -3 6 1 7 9 4 9 -3 13 -10 10 -15 -3 -5 2 -6 10 -3
9 3 13 11 9 17 -3 5 -1 7 5 3 5 -3 13 0 16 6 3 7 4 4 1 -7 -5 -19 -1 -21 30
-17 22 3 33 8 28 16 -3 6 -3 8 2 4 4 -4 14 -3 22 3 9 9 13 8 13 0 0 -6 -4 -11
-10 -11 -5 0 -10 -4 -10 -8 0 -4 16 -6 35 -4 22 3 33 8 28 16 -3 6 -3 8 2 4 4
-4 14 -3 22 3 9 9 13 8 13 0 0 -6 -4 -11 -10 -11 -5 0 -10 -3 -10 -8 0 -4 20
-6 45 -4 25 2 42 8 39 13 -3 5 2 6 10 3 9 -3 14 -10 11 -14 -6 -9 39 -4 65 7
28 11 39 11 34 -1 -4 -9 8 -11 46 -6 28 4 53 3 56 -2 3 -5 10 -5 16 -2 7 4 8
2 4 -5 -6 -9 -11 -9 -24 0 -10 7 3 -7 26 -31 35 -35 46 -40 53 -29 8 12 10 12
8 -1 -3 -23 12 -68 27 -81 8 -6 11 -16 7 -22 -4 -6 -1 -7 7 -2 10 6 12 4 7 -8
-4 -12 -1 -17 11 -18 14 0 14 -2 -3 -9 -11 -5 -15 -9 -8 -9 7 -1 10 -8 6 -18
-5 -12 -3 -14 8 -8 11 7 12 6 3 -6 -14 -20 -12 -55 4 -51 8 1 11 -2 7 -7 -3
-6 -12 -8 -21 -4 -8 3 -14 2 -12 -3 1 -5 -3 -19 -10 -31 -6 -12 -9 -28 -7 -36
3 -7 -2 -20 -12 -27 -15 -12 -16 -12 -5 0 18 21 14 32 -7 18 -14 -9 -17 -17
-11 -28 6 -12 5 -17 -5 -17 -8 0 -12 4 -9 9 3 4 0 8 -6 8 -6 0 -8 5 -5 10 3 6
1 10 -5 10 -8 0 -10 -9 -6 -26 6 -23 5 -24 -14 -14 -11 6 -25 8 -30 5 -24 -15
-6 21 35 72 39 47 52 80 46 116 0 4 4 7 10 7 5 0 7 5 4 10 -4 6 -8 22 -11 36
-10 57 -62 118 -123 145 -43 19 -70 19 -827 19 -431 0 -789 -2 -796 -4 -7 -3
-25 -7 -40 -10 -39 -9 -98 -64 -119 -111 -10 -22 -19 -34 -19 -27 0 7 -4 10
-10 7 -5 -3 -10 -2 -10 4 0 5 6 12 13 14 9 4 8 8 -3 17 -13 10 -12 11 3 6 12
-4 17 -2 14 6 -7 20 38 78 76 98 19 10 36 18 39 17 2 -1 -4 4 -12 12 -13 12
-13 13 5 6 11 -4 28 -7 38 -7 9 0 15 -3 12 -8 -9 -15 29 2 43 19 12 14 13 14
8 -1 -3 -10 -3 -18 1 -18 3 0 12 8 19 18 13 16 14 16 8 0 -8 -22 2 -23 22 -3
9 8 20 15 27 15 6 0 2 -6 -8 -14 -19 -13 -18 -14 8 -13 18 1 25 6 22 15 -3 9
1 9 17 -2 19 -14 23 -14 35 2 11 13 14 13 10 2 -3 -10 3 -15 19 -15 14 0 24 6
25 15 0 10 3 8 9 -5 5 -11 9 -15 9 -9 1 8 12 9 37 4 27 -6 34 -5 31 4 -3 7 1
13 9 13 7 0 11 -4 8 -8 -2 -4 0 -10 6 -14 5 -3 10 2 10 12 0 11 3 14 8 7 11
-17 55 -25 48 -9 -6 16 28 12 50 -6 10 -8 14 -8 14 -1 0 7 7 9 17 5 10 -4 14
-2 10 4 -3 5 0 10 8 10 8 0 12 -4 9 -9 -3 -4 20 -8 51 -8 42 0 54 3 49 13 -6
10 -4 10 7 0 14 -14 61 -17 73 -6 9 10 37 13 31 4 -2 -4 14 -8 36 -9 29 -1 38
1 33 11 -5 9 -4 9 7 0 20 -19 33 -16 18 5 -12 15 -12 16 2 5 9 -7 20 -9 24 -5z
m39 4 c3 -5 -1 -9 -9 -9 -8 0 -12 4 -9 9 3 4 7 8 9 8 2 0 6 -4 9 -8z m43 2
c-3 -3 -12 -4 -19 -1 -8 3 -5 6 6 6 11 1 17 -2 13 -5z m-630 -10 c-3 -3 -12
-4 -19 -1 -8 3 -5 6 6 6 11 1 17 -2 13 -5z m760 0 c-3 -3 -12 -4 -19 -1 -8 3
-5 6 6 6 11 1 17 -2 13 -5z m-1165 -36 c-9 -9 -15 -9 -24 1 -11 10 -10 11 5 6
10 -5 17 -2 17 6 0 7 3 9 7 6 4 -4 1 -13 -5 -19z m1805 -13 c0 -8 -4 -12 -9
-9 -5 3 -6 10 -3 15 9 13 12 11 12 -6z m-1863 -21 c3 -8 2 -12 -4 -9 -6 3 -10
10 -10 16 0 14 7 11 14 -7z m-21 -29 c-3 -9 -8 -14 -10 -11 -3 3 -2 9 2 15 9
16 15 13 8 -4z m3548 -13 c-5 -10 -18 -25 -28 -33 -16 -12 -17 -12 -6 2 7 9 9
20 5 24 -4 5 -2 5 4 2 7 -4 14 0 18 8 3 8 8 15 11 15 3 0 1 -8 -4 -18z m-76
-72 c3 -5 1 -10 -4 -10 -6 0 -11 5 -11 10 0 6 2 10 4 10 3 0 8 -4 11 -10z
m-4972 -40 c15 -16 23 -30 19 -30 -5 0 -18 14 -30 30 -13 17 -21 30 -19 30 2
0 16 -13 30 -30z m1497 5 c11 -13 10 -14 -4 -9 -9 3 -16 10 -16 15 0 13 6 11
20 -6z m6 -43 c10 -100 18 -141 25 -136 5 3 9 3 9 0 0 -3 -5 -8 -10 -11 -6 -4
-15 7 -21 24 -6 17 -17 31 -25 31 -8 0 -14 5 -14 11 0 5 4 8 9 4 5 -3 12 -1
16 5 3 5 -2 10 -12 11 -16 0 -16 1 2 8 19 8 19 8 0 20 -18 11 -18 12 -2 7 12
-4 17 -2 14 6 -2 7 -10 12 -16 11 -15 -4 -14 14 2 20 12 4 21 0 23 -11z
m-1452 -17 c11 -8 16 -15 10 -15 -5 0 -18 7 -28 15 -11 8 -16 15 -10 15 5 0
18 -7 28 -15z m4846 0 c-7 -9 -15 -13 -19 -10 -3 3 1 10 9 15 21 14 24 12 10
-5z m-59 -58 c-10 -9 -11 -8 -5 6 3 10 9 15 12 12 3 -3 0 -11 -7 -18z m-4790
-64 c-12 -20 -14 -14 -5 12 4 9 9 14 11 11 3 -2 0 -13 -6 -23z m3429 17 c0 -5
-2 -10 -4 -10 -3 0 -8 5 -11 10 -3 6 -1 10 4 10 6 0 11 -4 11 -10z m-155 -92
c-1 -12 -7 -24 -13 -26 -8 -2 -10 3 -6 15 5 17 5 17 -6 0 -6 -10 -16 -14 -23
-10 -9 5 -9 3 0 -8 10 -12 9 -20 -4 -39 -15 -21 -17 -22 -29 -6 -6 10 -14 13
-17 9 -3 -5 3 -14 13 -21 15 -9 22 -8 34 3 13 14 16 13 27 -7 11 -20 10 -21
-3 -11 -20 17 -31 4 -15 -16 11 -14 10 -14 -5 -2 -10 7 -18 10 -18 6 0 -5 -9
0 -19 9 -11 10 -26 16 -33 13 -9 -4 -8 -6 3 -6 8 -1 25 -11 37 -24 l22 -23
-24 0 c-14 0 -23 6 -22 14 1 8 -9 16 -21 17 -14 1 -19 -3 -16 -12 4 -9 0 -11
-12 -6 -15 5 -4 19 58 79 43 41 77 79 77 86 0 11 2 10 8 0 5 -7 8 -22 7 -34z
m-592 15 c-5 -12 -7 -12 -14 -1 -7 10 -9 10 -9 -3 0 -17 -57 -79 -72 -79 -5 0
7 15 26 34 20 18 36 40 35 47 0 12 -1 12 -6 0 -5 -11 -7 -11 -15 0 -7 11 -8 9
-4 -5 7 -20 -9 -46 -27 -46 -7 0 -7 4 1 12 16 16 15 25 -2 25 -8 0 -12 -6 -8
-15 4 -11 2 -13 -9 -7 -11 7 -11 5 1 -10 14 -16 13 -17 -8 -11 -23 8 -24 7
-26 -37 -2 -28 -2 -28 14 -7 9 11 19 18 23 14 4 -4 -8 -18 -26 -31 -17 -13
-32 -27 -32 -31 0 -4 -15 -20 -34 -37 -23 -20 -33 -24 -28 -12 3 9 2 17 -4 17
-6 0 -9 -11 -7 -23 1 -13 -5 -32 -15 -41 -9 -10 -17 -16 -18 -14 -8 34 -6 39
14 34 12 -3 16 -3 10 0 -27 12 -6 68 21 58 7 -3 23 1 37 8 23 12 23 14 7 31
-10 9 -18 13 -18 8 0 -5 -6 -11 -12 -14 -7 -2 -5 -3 5 -1 10 1 16 -3 14 -9 -2
-7 -13 -12 -24 -12 -24 0 -53 -22 -53 -41 0 -7 -5 -16 -12 -20 -8 -5 -9 -1 -4
12 6 15 5 16 -5 7 -9 -9 -9 -16 -1 -26 7 -8 10 -16 7 -19 -3 -3 -32 21 -65 53
-32 33 -61 59 -64 59 -3 0 -34 29 -69 65 -35 35 -67 62 -71 58 -3 -3 -6 1 -6
11 0 16 22 17 279 15 243 -1 279 -3 274 -16z m-983 3 c0 -2 -8 -10 -17 -17
-16 -13 -17 -12 -4 4 13 16 21 21 21 13z m1618 -14 c2 -8 -3 -10 -13 -5 -16 6
-16 4 0 -23 13 -23 14 -25 1 -10 -16 20 -20 15 -17 -24 0 -10 -1 -11 -5 -2 -3
6 -10 12 -15 12 -6 0 -5 -9 1 -22 10 -21 10 -21 -3 -6 -8 10 -17 15 -20 12 -3
-4 -5 3 -4 14 0 11 5 18 10 15 11 -7 38 17 31 28 -7 13 6 31 19 26 6 -2 13 -9
15 -15z m1489 12 c-3 -3 -12 -4 -19 -1 -8 3 -5 6 6 6 11 1 17 -2 13 -5z
m-3066 -57 c-10 -9 -11 -8 -5 6 3 10 9 15 12 12 3 -3 0 -11 -7 -18z m140 6
c13 -16 12 -17 -3 -4 -17 13 -22 21 -14 21 2 0 10 -8 17 -17z m-2010 -16 c-10
-9 -11 -8 -5 6 3 10 9 15 12 12 3 -3 0 -11 -7 -18z m2219 -1 c0 -2 -8 -10 -17
-17 -16 -13 -17 -12 -4 4 13 16 21 21 21 13z m472 -18 c-7 -7 -12 -8 -12 -2 0
6 3 14 7 17 3 4 9 5 12 2 2 -3 -1 -11 -7 -17z m-871 -35 c13 -16 12 -17 -3 -4
-10 7 -18 15 -18 17 0 8 8 3 21 -13z m-22 -27 c-3 -3 -11 5 -18 17 -13 21 -12
21 5 5 10 -10 16 -20 13 -22z m532 17 c13 -16 12 -17 -3 -4 -17 13 -22 21 -14
21 2 0 10 -8 17 -17z m-2411 -3 c0 -5 -5 -10 -11 -10 -5 0 -7 5 -4 10 3 6 8
10 11 10 2 0 4 -4 4 -10z m3376 -15 c-3 -9 1 -18 9 -21 8 -4 15 -11 15 -16 0
-7 -5 -6 -14 1 -7 6 -22 8 -31 4 -14 -5 -16 -3 -10 8 21 37 42 53 31 24z
m-1076 1 c0 -2 -8 -10 -17 -17 -16 -13 -17 -12 -4 4 13 16 21 21 21 13z
m-2322 -20 c-7 -8 -15 -12 -17 -11 -5 6 10 25 20 25 5 0 4 -6 -3 -14z m2033
-3 c13 -16 12 -17 -3 -4 -17 13 -22 21 -14 21 2 0 10 -8 17 -17z m1326 3 c-3
-7 0 -19 6 -25 6 -6 7 -14 3 -18 -10 -10 -27 19 -21 35 3 7 0 10 -6 7 -13 -8
-1 -46 20 -62 14 -12 14 -12 -1 -7 -25 9 -42 -4 -27 -22 15 -18 2 -18 -17 0
-17 18 -18 27 -1 24 6 -2 12 3 11 10 -3 36 -5 42 -14 42 -7 0 -7 -6 0 -19 14
-28 12 -36 -5 -21 -20 16 -19 29 3 51 21 22 57 25 49 5z m-3401 -31 c-9 -9
-16 -13 -16 -8 0 12 22 34 28 28 2 -2 -3 -11 -12 -20z m2009 -6 c11 -16 1 -19
-13 -3 -7 8 -8 14 -3 14 5 0 13 -5 16 -11z m1312 -13 c-4 -11 -1 -13 10 -9 11
4 14 2 9 -5 -4 -6 -1 -22 5 -34 11 -22 11 -22 -6 -8 -24 20 -69 22 -53 2 9
-10 7 -17 -4 -29 -14 -14 -16 -12 -14 13 2 34 14 57 26 49 4 -3 10 4 13 15 3
11 8 20 12 20 4 0 5 -7 2 -14z m-1279 -31 c-3 -3 -9 2 -12 12 -6 14 -5 15 5 6
7 -7 10 -15 7 -18z m452 11 c0 -2 -8 -10 -17 -17 -16 -13 -17 -12 -4 4 13 16
21 21 21 13z m-410 -31 c0 -12 -19 -12 -23 0 -4 9 -1 12 9 8 7 -3 14 -7 14 -8z
m1245 -15 c4 -12 11 -17 18 -14 7 4 8 3 4 -2 -5 -5 -16 -9 -25 -9 -9 -1 -27
-6 -40 -14 -17 -9 -27 -10 -37 -1 -9 7 -15 8 -20 0 -8 -13 -25 -13 -25 -1 0 5
9 13 20 16 11 3 20 13 20 21 0 8 5 14 11 14 6 0 8 -7 5 -16 -3 -9 -4 -20 -1
-25 9 -13 45 14 45 33 0 24 17 23 25 -2z m-854 -13 c-10 -9 -11 -8 -5 6 3 10
9 15 12 12 3 -3 0 -11 -7 -18z m49 19 c0 -3 -4 -8 -10 -11 -5 -3 -10 -1 -10 4
0 6 5 11 10 11 6 0 10 -2 10 -4z m34 -4 c3 -5 -1 -9 -9 -9 -8 0 -12 4 -9 9 3
4 7 8 9 8 2 0 6 -4 9 -8z m2793 1 c-4 -3 -1 -13 6 -22 11 -14 10 -14 -5 -2
-16 12 -16 31 -1 31 4 0 3 -3 0 -7z m-5453 -21 c3 -5 -1 -9 -9 -9 -8 0 -12 4
-9 9 3 4 7 8 9 8 2 0 6 -4 9 -8z m2237 -7 c11 6 11 5 2 -5 -12 -14 -33 -6 -33
13 0 8 3 7 9 -2 5 -8 14 -10 22 -6z m226 8 c-4 -3 -1 -13 6 -22 11 -14 10 -14
-5 -2 -16 12 -16 31 -1 31 4 0 3 -3 0 -7z m-37 -7 c0 -2 -8 -10 -17 -17 -16
-13 -17 -12 -4 4 13 16 21 21 21 13z m-165 -18 c-5 -15 14 -42 35 -51 13 -4
12 -6 -1 -6 -19 -1 -53 45 -44 59 9 14 15 12 10 -2z m122 -3 c0 -8 -4 -12 -9
-9 -5 3 -6 10 -3 15 9 13 12 11 12 -6z m956 -39 c-11 -14 -23 -22 -27 -19 -6
6 -10 -13 -7 -31 1 -5 -6 -5 -16 -1 -10 4 -24 8 -30 8 -19 1 -16 37 3 37 9 0
12 5 8 12 -4 7 -3 8 4 4 7 -4 12 -1 12 9 0 12 6 15 19 10 11 -3 22 -1 26 5 5
8 11 8 17 2 7 -7 4 -19 -9 -36z m62 24 c3 -5 1 -10 -4 -10 -6 0 -11 5 -11 10
0 6 2 10 4 10 3 0 8 -4 11 -10z m-21 -16 c3 -8 2 -12 -4 -9 -6 3 -10 10 -10
16 0 14 7 11 14 -7z m-14 -17 c0 -2 -12 -14 -27 -28 l-26 -24 19 27 c16 23 34
36 34 25z m2175 -8 c11 -16 1 -19 -13 -3 -7 8 -8 14 -3 14 5 0 13 -5 16 -11z
m-3217 -26 c-8 -10 -6 -13 5 -13 9 0 21 8 27 18 11 16 11 16 6 -2 -7 -22 11
-49 28 -39 6 3 6 0 -1 -7 -11 -12 -15 -11 -25 2 -7 9 -21 18 -31 20 -10 1 -17
7 -17 12 1 5 -4 12 -12 17 -9 6 -6 8 9 6 17 -1 19 -4 11 -14z m917 -3 c4 -6
10 -8 15 -5 5 3 11 1 15 -5 3 -5 1 -10 -5 -10 -6 0 -8 -6 -4 -12 4 -7 4 -10
-1 -6 -4 4 -14 0 -20 -9 -11 -15 -15 -15 -29 -4 -13 11 -19 11 -31 1 -8 -7
-12 -16 -9 -21 3 -5 -2 -12 -10 -15 -9 -3 -13 -11 -10 -16 7 -10 28 17 29 36
0 5 6 11 14 14 9 3 11 0 6 -8 -5 -8 -4 -11 2 -7 6 4 13 0 17 -8 3 -8 0 -17 -6
-21 -7 -4 -8 -3 -4 4 13 22 -11 12 -26 -10 -10 -14 -20 -19 -31 -15 -23 9 -31
5 -32 -15 -1 -9 3 -14 8 -11 6 3 7 1 3 -6 -9 -14 -22 -7 -28 17 -4 13 4 25 23
38 16 10 29 24 29 30 0 6 11 16 24 24 13 7 27 21 29 31 6 21 22 25 32 9z
m-700 -9 c3 -5 2 -12 -3 -15 -5 -3 -9 1 -9 9 0 17 3 19 12 6z m741 -39 c-17
-16 -18 -16 -5 5 7 12 15 20 18 17 3 -2 -3 -12 -13 -22z m-922 -8 c3 -8 2 -12
-4 -9 -6 3 -10 10 -10 16 0 14 7 11 14 -7z m60 -5 c-2 -4 11 -23 29 -41 18
-19 31 -40 29 -47 -3 -9 0 -11 9 -6 8 5 5 -1 -6 -12 -11 -11 -23 -19 -27 -16
-5 2 -8 -2 -8 -9 0 -22 -78 -91 -95 -84 -17 6 -12 26 6 26 6 0 7 -4 4 -10 -4
-6 1 -7 11 -3 15 5 15 7 0 15 -9 5 -16 14 -16 20 0 7 4 7 13 -1 10 -8 18 -7
32 2 16 12 14 13 -17 12 -18 -1 -42 2 -53 6 -11 4 -14 8 -8 8 20 1 53 33 46
44 -4 6 -1 7 8 1 26 -16 46 -14 24 3 -18 14 -18 15 -2 9 10 -3 23 -6 28 -6 6
0 7 -4 4 -10 -3 -5 -1 -10 4 -10 6 0 11 3 11 8 -1 12 -27 42 -32 37 -3 -3 -5
5 -5 17 -1 43 -3 49 -15 42 -6 -4 -8 -3 -5 3 3 5 13 10 21 10 8 0 13 -4 10 -8z
m827 -22 c-10 -9 -11 -8 -5 6 3 10 9 15 12 12 3 -3 0 -11 -7 -18z m2394 13 c3
-5 1 -10 -4 -10 -6 0 -11 5 -11 10 0 6 2 10 4 10 3 0 8 -4 11 -10z m-5820 -10
c-3 -5 -12 -10 -18 -10 -7 0 -6 4 3 10 19 12 23 12 15 0z m5850 -20 c3 -6 -1
-7 -9 -4 -18 7 -21 14 -7 14 6 0 13 -4 16 -10z m-2495 -43 c13 4 13 3 0 -6
-22 -16 -26 -14 -39 17 -11 27 -11 27 7 6 9 -11 24 -19 32 -17z m35 23 c-3 -5
-12 -10 -18 -10 -7 0 -6 4 3 10 19 12 23 12 15 0z m2545 -75 c0 -8 -2 -15 -4
-15 -2 0 -6 7 -10 15 -3 8 -1 15 4 15 6 0 10 -7 10 -15z m-6065 -15 c-3 -5
-11 -10 -16 -10 -6 0 -7 5 -4 10 3 6 11 10 16 10 6 0 7 -4 4 -10z m2655 -26
c0 -22 -24 -33 -43 -20 -23 18 -22 29 3 16 12 -6 20 -7 20 -1 0 5 -6 11 -12
14 -7 3 -3 4 10 4 12 -1 22 -6 22 -13z m3454 -20 c3 -8 2 -12 -4 -9 -6 3 -10
10 -10 16 0 14 7 11 14 -7z m-3532 -7 c-8 -9 -4 -15 14 -24 13 -6 24 -7 24 -3
0 5 -6 10 -12 13 -7 2 -10 8 -6 12 4 4 14 2 23 -5 8 -7 15 -9 15 -5 0 4 7 2
15 -5 19 -16 19 -27 1 -27 -9 0 -12 7 -8 16 3 9 2 13 -3 9 -4 -4 -8 -20 -9
-35 -1 -20 -5 -27 -16 -24 -8 2 -23 4 -32 5 -20 0 -22 5 -8 26 5 8 10 10 10 5
0 -6 9 -16 20 -22 16 -11 18 -10 14 1 -5 14 -26 26 -40 25 -14 -1 -22 26 -12
38 6 7 13 13 15 13 3 0 1 -6 -5 -13z m832 -5 c3 -5 -1 -9 -9 -9 -8 0 -12 4 -9
9 3 4 7 8 9 8 2 0 6 -4 9 -8z m52 -4 c3 -4 -1 -5 -10 -4 -8 1 -18 5 -22 8 -3
4 1 5 10 4 8 -1 18 -5 22 -8z m-905 -56 c-6 -10 -7 -22 -4 -26 3 -3 1 -6 -5
-6 -7 0 -12 5 -12 10 0 20 -2 25 -13 40 -10 13 -10 13 5 2 11 -9 18 -10 23 -2
3 5 1 10 -4 10 -6 0 -11 5 -11 12 0 8 6 7 16 -4 12 -12 14 -20 5 -36z m759 -2
c0 -5 -5 -10 -11 -10 -5 0 -7 5 -4 10 3 6 8 10 11 10 2 0 4 -4 4 -10z m-795
-27 c-5 -10 -8 -38 -9 -63 -1 -29 -5 -44 -13 -43 -6 2 -15 -7 -18 -18 -5 -16
-10 -18 -21 -8 -8 6 -14 8 -14 3 0 -5 -5 -1 -11 9 -5 9 -15 17 -22 17 -8 0 -8
-3 2 -9 9 -6 10 -11 2 -15 -6 -4 -15 -5 -20 -1 -23 13 -18 -15 6 -39 14 -14
21 -27 14 -27 -31 -5 -36 -3 -36 15 0 11 -6 20 -13 22 -7 1 -8 0 -2 -3 17 -8
11 -26 -6 -19 -10 4 -18 0 -21 -12 -6 -23 -38 -25 -55 -4 -7 9 -9 14 -4 10 8
-7 66 17 66 28 0 3 -6 2 -12 -2 -7 -3 0 5 16 18 17 14 26 30 22 36 -4 7 -2 10
6 7 7 -3 24 5 38 16 17 15 19 19 7 15 -11 -4 -16 -2 -12 5 4 6 13 8 21 5 7 -3
16 -1 19 4 4 6 -2 10 -12 10 -15 0 -15 2 -3 10 11 7 21 -1 42 -33 15 -23 28
-37 28 -30 0 6 -4 14 -10 18 -5 3 -7 12 -3 21 3 8 2 14 -3 12 -5 -2 -11 2 -12
7 -2 6 -8 15 -13 22 -7 7 -6 14 2 19 8 4 9 3 5 -4 -10 -17 11 -15 26 3 18 20
32 19 23 -2z m83 -1 c2 -8 -2 -10 -13 -6 -9 4 -15 3 -13 -2 2 -5 -4 -19 -12
-31 -13 -18 -18 -19 -34 -8 -20 15 -11 40 14 40 8 0 14 5 13 11 -3 15 39 12
45 -4z m952 8 c0 -5 -2 -10 -4 -10 -3 0 -8 5 -11 10 -3 6 -1 10 4 10 6 0 11
-4 11 -10z m-3754 -75 c-1 -8 -5 -17 -8 -21 -5 -4 -4 16 1 34 3 9 9 -1 7 -13z
m2734 -1 c0 -8 -5 -12 -10 -9 -6 4 -8 11 -5 16 9 14 15 11 15 -7z m593 -27 c4
3 7 1 7 -6 0 -8 -10 -11 -28 -8 -16 3 -33 -2 -42 -11 -13 -14 -12 -15 5 -8 11
5 29 8 39 8 11 -1 28 3 38 9 10 6 17 6 16 1 -4 -12 67 -82 82 -82 5 0 10 -5
10 -11 0 -19 26 -39 38 -27 6 6 12 6 17 -3 5 -8 4 -10 -3 -5 -7 4 -12 3 -12
-1 0 -13 103 -109 113 -105 5 1 6 -1 3 -6 -3 -5 -137 -9 -299 -10 l-294 0 48
49 c26 27 52 49 59 49 6 0 9 4 6 9 -8 12 47 58 63 53 7 -2 17 2 22 9 15 23 10
34 -6 13 -8 -10 -15 -15 -15 -10 0 14 83 95 92 90 4 -3 8 3 8 13 1 17 1 17 14
1 7 -10 16 -15 19 -11z m3167 2 c0 -5 -4 -9 -8 -9 -5 0 -9 7 -9 15 0 8 4 12 9
9 4 -3 8 -9 8 -15z m-3105 -19 c3 -5 1 -10 -4 -10 -6 0 -11 5 -11 10 0 6 2 10
4 10 3 0 8 -4 11 -10z m239 -6 c3 -8 2 -12 -4 -9 -6 3 -10 10 -10 16 0 14 7
11 14 -7z m270 8 c3 -5 -1 -9 -9 -9 -8 0 -12 4 -9 9 3 4 7 8 9 8 2 0 6 -4 9
-8z m-1244 -33 c0 -3 -7 -12 -16 -19 -12 -11 -18 -10 -34 6 -19 19 -19 19 15
20 19 0 35 -3 35 -7z m921 -46 c13 -16 12 -17 -3 -4 -17 13 -22 21 -14 21 2 0
10 -8 17 -17z m-988 -21 c5 -11 -42 -52 -49 -41 -3 5 -15 7 -25 4 -18 -6 -19
-4 -9 12 16 24 52 29 43 5 -6 -14 -5 -15 9 -2 13 13 14 16 2 23 -22 13 -17 29
5 17 11 -5 22 -13 24 -18z m-99 -13 c12 2 1 -14 -25 -36 -27 -23 -35 -71 -16
-90 5 -4 8 -3 7 2 -7 33 1 46 23 40 17 -5 18 -4 7 4 -8 5 -11 13 -7 18 5 4 12
1 16 -6 5 -8 11 -9 15 -3 11 18 -26 23 -45 6 -11 -10 -19 -13 -19 -7 0 5 9 18
20 28 19 17 21 17 40 0 18 -17 20 -17 14 -2 -3 10 -1 17 5 17 6 0 11 -6 11
-13 0 -17 -54 -69 -63 -60 -4 3 -7 0 -7 -8 0 -17 -36 -50 -44 -42 -3 4 -6 0
-6 -8 -1 -8 -15 -30 -32 -49 -24 -27 -28 -29 -15 -8 14 23 15 26 2 22 -14 -6
-19 -23 -16 -51 1 -7 -8 -13 -20 -13 -22 0 -22 0 -3 -15 10 -8 14 -15 7 -15
-7 0 -10 -7 -6 -17 5 -12 3 -14 -8 -8 -11 7 -12 6 -4 -6 6 -8 12 -27 14 -44 5
-44 34 -95 75 -133 20 -18 36 -30 36 -26 0 4 7 1 15 -6 8 -7 15 -18 15 -24 0
-6 -7 -3 -14 7 -9 12 -16 14 -21 8 -3 -6 -12 -11 -18 -10 -9 0 -8 2 1 6 6 2 9
9 6 14 -4 6 -11 6 -19 -1 -15 -13 -39 -4 -30 10 3 5 -3 14 -14 19 -26 14 -34
14 -25 -1 5 -8 1 -8 -12 2 -29 22 -30 24 -11 17 22 -8 21 -7 -5 42 -11 22 -26
39 -32 38 -6 -1 -10 7 -8 18 2 11 3 41 2 68 -1 26 2 53 7 60 4 6 9 19 10 28 1
8 9 28 17 43 8 16 13 37 11 47 -2 11 -1 18 3 16 11 -7 47 9 48 22 1 6 2 16 3
21 0 6 6 10 12 10 8 0 8 -4 0 -14 -10 -11 -8 -17 9 -29 15 -11 18 -16 8 -20
-7 -3 -3 -4 9 -4 16 1 19 4 12 14 -6 7 -8 17 -4 23 4 6 -2 19 -13 28 -18 15
-18 19 -4 32 14 13 15 12 9 -3 -8 -22 6 -22 24 0 10 11 10 14 2 9 -7 -4 -13
-2 -13 3 0 6 9 11 20 11 11 0 19 3 19 8 -1 4 -1 14 0 22 1 12 3 12 10 2 4 -8
11 -13 15 -13z m1096 -3 c0 -2 -8 -10 -17 -17 -16 -13 -17 -12 -4 4 13 16 21
21 21 13z m314 -4 c3 -5 -1 -9 -9 -9 -8 0 -12 4 -9 9 3 4 7 8 9 8 2 0 6 -4 9
-8z m112 -38 c1 -9 0 -13 -4 -10 -3 4 -7 14 -8 22 -1 9 0 13 4 10 3 -4 7 -14
8 -22z m-4079 -29 c0 -8 -4 -12 -9 -9 -5 3 -6 10 -3 15 9 13 12 11 12 -6z
m3719 -21 c1 -9 0 -13 -4 -10 -3 4 -7 14 -8 22 -1 9 0 13 4 10 3 -4 7 -14 8
-22z m-1242 -5 c-3 -5 -10 -7 -15 -3 -5 3 -7 10 -3 15 3 5 10 7 15 3 5 -3 7
-10 3 -15z m1216 17 c0 -2 -8 -10 -17 -17 -16 -13 -17 -12 -4 4 13 16 21 21
21 13z m447 -11 c0 -8 -4 -12 -9 -9 -5 3 -6 10 -3 15 9 13 12 11 12 -6z m2543
-55 c0 -5 -5 -10 -11 -10 -5 0 -7 5 -4 10 3 6 8 10 11 10 2 0 4 -4 4 -10z
m-4340 -70 c-6 -11 -13 -20 -16 -20 -2 0 0 9 6 20 6 11 13 20 16 20 2 0 0 -9
-6 -20z m10 -24 c0 -2 -8 -10 -17 -17 -16 -13 -17 -12 -4 4 13 16 21 21 21 13z
m-26 -66 c-6 -6 -10 -3 -10 10 0 13 4 16 10 10 7 -7 7 -13 0 -20z m2026 -45
c0 -5 -5 -3 -10 5 -5 8 -10 20 -10 25 0 6 5 3 10 -5 5 -8 10 -19 10 -25z
m-2015 5 c3 -5 1 -10 -4 -10 -6 0 -11 5 -11 10 0 6 2 10 4 10 3 0 8 -4 11 -10z
m-2295 -34 c0 -3 -4 -8 -10 -11 -5 -3 -10 -1 -10 4 0 6 5 11 10 11 6 0 10 -2
10 -4z m21 -33 c13 -16 12 -17 -3 -4 -10 7 -18 15 -18 17 0 8 8 3 21 -13z
m4255 -8 c-4 -14 -1 -35 5 -48 11 -20 11 -21 -4 -8 -14 11 -17 11 -17 -1 0
-20 -36 -48 -71 -55 -16 -3 -29 -10 -29 -15 0 -5 -7 -5 -17 1 -14 7 -24 4 -40
-11 -13 -12 -23 -17 -23 -11 0 6 6 14 13 16 7 3 5 6 -6 6 -10 1 -20 -5 -23
-12 -2 -7 -15 -13 -27 -14 -21 -2 -21 -1 3 12 l25 15 -33 -2 c-19 -1 -31 -7
-28 -13 2 -6 -7 -11 -19 -11 -13 0 -21 4 -19 8 3 5 10 5 16 2 6 -4 8 -3 5 3
-7 11 -101 8 -119 -4 -20 -12 -37 -12 -32 0 7 19 -139 16 -148 -3 -5 -12 -7
-12 -7 3 -1 9 -6 17 -12 17 -5 0 -7 -6 -3 -12 5 -9 2 -9 -9 1 -20 16 -23 2 -4
-19 10 -12 9 -12 -4 -2 -9 6 -20 8 -24 4 -5 -4 -5 -2 -2 4 4 7 -3 14 -19 17
-18 3 -24 1 -20 -8 5 -14 -19 -14 -31 0 -5 4 -1 5 7 0 8 -5 12 -4 7 0 -4 5
-17 10 -29 12 -16 3 -18 0 -10 -10 9 -10 8 -14 -3 -14 -8 0 -12 4 -9 8 2 4 0
10 -6 14 -5 3 -10 -2 -10 -12 -1 -16 -2 -16 -10 -2 -7 11 -23 15 -62 13 -71
-2 -70 -2 -62 -16 4 -7 3 -8 -5 -4 -6 4 -9 12 -6 17 4 5 1 9 -4 9 -6 0 -11 -8
-11 -17 -1 -16 -2 -16 -12 1 -11 19 -11 19 -26 0 -11 -15 -13 -15 -9 -2 5 13
0 16 -30 13 -19 -1 -40 -9 -45 -16 -8 -11 -9 -11 -5 2 4 12 -2 16 -23 16 -21
0 -27 -4 -23 -16 4 -13 3 -14 -5 -2 -16 22 -90 26 -112 6 -14 -12 -20 -13 -26
-4 -4 8 -3 10 4 5 7 -4 12 -3 12 3 0 5 -13 9 -30 9 -26 -1 -28 -3 -18 -17 10
-12 8 -12 -8 2 -11 9 -28 17 -37 17 -11 0 -14 -5 -10 -17 5 -16 4 -16 -9 1
-16 20 -55 18 -50 -3 1 -7 -2 -10 -8 -6 -6 3 -7 11 -4 17 5 7 1 9 -9 5 -9 -3
-19 -2 -22 3 -3 5 115 9 282 10 654 4 961 8 1006 15 57 9 119 51 138 94 17 38
23 40 15 6z m-1946 -26 c15 -28 5 -23 -15 7 -9 15 -12 23 -6 20 6 -4 16 -16
21 -27z m1961 8 c-10 -9 -11 -8 -5 6 3 10 9 15 12 12 3 -3 0 -11 -7 -18z m-11
-60 c0 -2 -11 -14 -25 -27 -14 -13 -25 -21 -25 -17 0 3 10 15 22 27 21 19 28
24 28 17z m-4165 -36 c-6 -5 -25 10 -25 20 0 5 6 4 14 -3 8 -7 12 -15 11 -17z
m2420 -11 c3 -5 1 -10 -4 -10 -6 0 -11 5 -11 10 0 6 2 10 4 10 3 0 8 -4 11
-10z m145 -2 c0 6 5 12 11 12 8 0 8 -5 -1 -15 -13 -16 -30 -11 -30 8 0 7 4 6
10 -3 6 -10 10 -11 10 -2z m48 -13 c-3 -3 -9 2 -12 12 -6 14 -5 15 5 6 7 -7
10 -15 7 -18z m37 -4 c-6 -5 -25 10 -25 20 0 5 6 4 14 -3 8 -7 12 -15 11 -17z
m43 22 c-11 -3 -15 -11 -12 -21 5 -15 4 -15 -5 -2 -16 23 -13 30 12 29 16 -1
17 -3 5 -6z m1412 3 c0 -2 -7 -7 -16 -10 -8 -3 -12 -2 -9 4 6 10 25 14 25 6z
m-1574 -19 c4 -3 -4 -4 -16 -2 -12 2 -25 7 -28 10 -3 3 4 4 16 2 12 -2 24 -6
28 -10z m264 -7 c0 -5 -2 -10 -4 -10 -3 0 -8 5 -11 10 -3 6 -1 10 4 10 6 0 11
-4 11 -10z m180 2 c0 -5 -7 -9 -15 -9 -8 0 -12 4 -9 9 3 4 9 8 15 8 5 0 9 -4
9 -8z m30 -2 c0 -5 -2 -10 -4 -10 -3 0 -8 5 -11 10 -3 6 -1 10 4 10 6 0 11 -4
11 -10z m304 2 c3 -5 -1 -9 -9 -9 -8 0 -12 4 -9 9 3 4 7 8 9 8 2 0 6 -4 9 -8z
m56 3 c0 -7 -30 -13 -34 -7 -3 4 4 9 15 9 10 1 19 0 19 -2z m244 -3 c3 -5 -1
-9 -9 -9 -8 0 -12 4 -9 9 3 4 7 8 9 8 2 0 6 -4 9 -8z m64 0 c8 -6 2 -9 -18 -9
-20 0 -26 3 -18 9 7 4 15 8 18 8 3 0 11 -4 18 -8z m352 -2 c0 -5 -2 -10 -4
-10 -3 0 -8 5 -11 10 -3 6 -1 10 4 10 6 0 11 -4 11 -10z m2360 -14 c0 -2 -7
-9 -15 -16 -13 -11 -14 -10 -9 4 5 14 24 23 24 12z m-6305 -56 c-3 -5 -1 -10
6 -10 7 0 10 -3 6 -6 -9 -9 -28 6 -22 17 4 5 8 9 11 9 3 0 2 -4 -1 -10z m6196
-67 c-12 -20 -14 -14 -5 12 4 9 9 14 11 11 3 -2 0 -13 -6 -23z m-107 -114 c-9
-11 -20 -17 -23 -14 -3 4 1 10 9 15 8 6 11 10 7 10 -5 0 -5 5 -2 10 4 6 11 8
16 4 6 -4 3 -14 -7 -25z m-5884 -41 c0 -4 -9 1 -20 12 -11 11 -20 23 -20 27 0
3 9 -2 20 -12 11 -10 20 -22 20 -27z m1260 17 c0 -2 -10 -9 -22 -15 -22 -11
-22 -10 -4 4 21 17 26 19 26 11z m180 -1 c0 -8 -19 -13 -24 -6 -3 5 1 9 9 9 8
0 15 -2 15 -3z m155 -13 c3 -5 2 -12 -3 -15 -5 -3 -9 1 -9 9 0 17 3 19 12 6z
m-502 -36 c-3 -9 -8 -14 -10 -11 -3 3 -2 9 2 15 9 16 15 13 8 -4z m3201 3 c-3
-4 -9 -8 -15 -8 -5 0 -9 4 -9 8 0 5 7 9 15 9 8 0 12 -4 9 -9z m226 1 c0 -8
-49 -9 -54 0 -2 3 9 6 25 6 16 1 29 -2 29 -6z m1276 -15 c-11 -8 -25 -14 -30
-13 -6 0 -1 5 12 11 12 6 22 16 22 21 0 6 3 7 7 3 5 -4 -1 -14 -11 -22z
m-4731 -4 c3 -6 -1 -7 -9 -4 -18 7 -21 14 -7 14 6 0 13 -4 16 -10z m-16 -13
c-2 -1 -13 -9 -24 -17 -19 -14 -19 -14 -6 3 7 9 18 17 24 17 6 0 8 -1 6 -3z
m3611 -1 c0 -3 -4 -8 -10 -11 -5 -3 -10 -1 -10 4 0 6 5 11 10 11 6 0 10 -2 10
-4z m65 -34 c-3 -3 -11 0 -18 7 -9 10 -8 11 6 5 10 -3 15 -9 12 -12z m-4621
-7 c3 -8 1 -15 -3 -15 -5 0 -11 7 -15 15 -3 8 -1 15 3 15 5 0 11 -7 15 -15z
m3886 0 c0 -2 -10 -9 -22 -15 -22 -11 -22 -10 -4 4 21 17 26 19 26 11z m-3851
-29 c9 -11 9 -16 -1 -22 -7 -4 -10 -4 -6 1 4 4 3 14 -3 22 -6 7 -9 13 -6 13 2
0 10 -6 16 -14z m5581 10 c0 -3 -4 -8 -10 -11 -5 -3 -10 -1 -10 4 0 6 5 11 10
11 6 0 10 -2 10 -4z m-4795 -26 c-3 -5 -14 -10 -23 -9 -14 0 -13 2 3 9 27 11
27 11 20 0z m2988 -5 c-3 -9 -8 -14 -10 -11 -3 3 -2 9 2 15 9 16 15 13 8 -4z
m1741 -23 c3 -5 -1 -9 -9 -9 -8 0 -12 4 -9 9 3 4 7 8 9 8 2 0 6 -4 9 -8z
m-5459 -12 c3 -5 1 -10 -4 -10 -6 0 -11 5 -11 10 0 6 2 10 4 10 3 0 8 -4 11
-10z m4659 -2 c-3 -4 2 -8 10 -8 8 0 17 -4 20 -9 9 -13 -32 -1 -44 13 -7 9 -6
13 5 13 8 0 12 -4 9 -9z m-3994 -12 c0 -2 -7 -9 -15 -16 -13 -11 -14 -10 -9 4
5 14 24 23 24 12z m-640 -10 c0 -3 -4 -8 -10 -11 -5 -3 -10 -1 -10 4 0 6 5 11
10 11 6 0 10 -2 10 -4z m5387 -18 c-3 -8 -6 -5 -6 6 -1 11 2 17 5 13 3 -3 4
-12 1 -19z m-5357 -18 c8 -5 11 -10 5 -10 -5 0 -17 5 -25 10 -8 5 -10 10 -5
10 6 0 17 -5 25 -10z m1744 -15 c3 -8 1 -15 -4 -15 -6 0 -10 7 -10 15 0 8 2
15 4 15 2 0 6 -7 10 -15z m1803 9 c-3 -3 -12 -4 -19 -1 -8 3 -5 6 6 6 11 1 17
-2 13 -5z m1183 -40 c0 -8 -19 -13 -24 -6 -3 5 1 9 9 9 8 0 15 -2 15 -3z
m-4240 -8 c0 -3 -4 -8 -10 -11 -5 -3 -10 -1 -10 4 0 6 5 11 10 11 6 0 10 -2
10 -4z m-37 -21 c-3 -9 -8 -14 -10 -11 -3 3 -2 9 2 15 9 16 15 13 8 -4z m3020
0 c-3 -9 -8 -14 -10 -11 -3 3 -2 9 2 15 9 16 15 13 8 -4z m-3393 -5 c0 -5 -5
-10 -11 -10 -5 0 -7 5 -4 10 3 6 8 10 11 10 2 0 4 -4 4 -10z m4686 -9 c-4 -5
-1 -12 4 -14 6 -3 5 -4 -2 -3 -15 3 -23 26 -8 26 6 0 9 -4 6 -9z m-1322 -30
c3 -4 -7 -19 -22 -32 l-27 -24 23 26 c12 14 19 29 15 32 -3 4 -4 7 0 7 3 0 8
-4 11 -9z m-1570 -83 c8 -5 7 -8 -1 -8 -7 0 -17 9 -23 19 -14 27 -12 41 2 16
6 -11 16 -23 22 -27z m-1594 -22 c0 -2 -8 -10 -17 -17 -16 -13 -17 -12 -4 4
13 16 21 21 21 13z m4634 -12 c3 -8 2 -12 -4 -9 -6 3 -10 10 -10 16 0 14 7 11
14 -7z m66 -49 c7 -9 8 -15 2 -15 -5 0 -12 7 -16 15 -3 8 -4 15 -2 15 2 0 9
-7 16 -15z m-1625 -4 c3 -5 2 -12 -3 -15 -5 -3 -9 1 -9 9 0 17 3 19 12 6z m30
-610 c3 -5 0 -13 -6 -17 -7 -4 -9 -3 -5 4 3 5 0 13 -6 15 -9 4 -10 6 -1 6 6 1
14 -3 18 -8z m-1554 -54 c-10 -9 -11 -8 -5 6 3 10 9 15 12 12 3 -3 0 -11 -7
-18z m1567 -2 c-3 -3 -9 2 -12 12 -6 14 -5 15 5 6 7 -7 10 -15 7 -18z m87
-113 c-3 -3 -11 0 -18 7 -9 10 -8 11 6 5 10 -3 15 -9 12 -12z m45 -47 c11 -13
10 -14 -4 -9 -9 3 -16 10 -16 15 0 13 6 11 20 -6z m-1850 -19 c0 -3 -4 -8 -10
-11 -5 -3 -10 -1 -10 4 0 6 5 11 10 11 6 0 10 -2 10 -4z m1945 -85 c3 -5 2
-12 -3 -15 -5 -3 -9 1 -9 9 0 17 3 19 12 6z m-2041 -19 c3 -5 -1 -9 -9 -9 -8
0 -12 4 -9 9 3 4 7 8 9 8 2 0 6 -4 9 -8z m2086 -27 c0 -2 -6 -7 -12 -11 -7 -4
-10 -4 -6 1 4 4 0 14 -10 22 -15 13 -15 13 6 3 12 -6 22 -13 22 -15z m-2165
-55 c3 -5 1 -10 -4 -10 -6 0 -11 5 -11 10 0 6 2 10 4 10 3 0 8 -4 11 -10z
m-81 -105 c-4 -8 -8 -15 -10 -15 -2 0 -4 7 -4 15 0 8 4 15 10 15 5 0 7 -7 4
-15z m2409 -51 c-3 -8 -10 -14 -15 -14 -7 0 -6 5 1 13 8 10 7 17 -2 27 -10 12
-9 12 5 1 9 -7 14 -19 11 -27z m-2407 17 c-4 -5 -1 -12 4 -14 6 -3 5 -4 -2 -3
-15 3 -23 26 -8 26 6 0 9 -4 6 -9z m2369 -61 c-3 -5 -12 -10 -18 -10 -7 0 -6
4 3 10 19 12 23 12 15 0z m-2311 -11 c-2 -4 2 -10 8 -12 7 -3 8 -6 2 -6 -5 -1
-18 5 -28 12 -16 12 -16 13 3 13 11 0 18 -3 15 -7z m2203 -91 c-3 -8 -6 -5 -6
6 -1 11 2 17 5 13 3 -3 4 -12 1 -19z m-33 -38 c-14 -14 -23 -17 -34 -9 -12 8
-11 9 5 7 12 -2 19 2 17 10 -1 8 2 11 8 7 5 -3 10 -1 10 6 0 7 3 9 7 5 4 -3
-2 -15 -13 -26z m-1814 -227 c0 -8 -50 22 -54 33 -3 9 7 5 24 -8 17 -12 30
-23 30 -25z m1594 15 c-4 -5 -9 -7 -12 -4 -3 3 -12 0 -21 -7 -14 -10 -14 -10
-4 4 13 16 46 23 37 7z m-81 -63 c-3 -9 -8 -14 -10 -11 -3 3 -2 9 2 15 9 16
15 13 8 -4z m-103 -99 c0 -2 -7 -7 -16 -10 -8 -3 -12 -2 -9 4 6 10 25 14 25 6z
m-180 -170 c0 -2 -7 -9 -15 -16 -13 -11 -14 -10 -9 4 5 14 24 23 24 12z m-823
-81 c0 -8 -4 -12 -9 -9 -5 3 -6 10 -3 15 9 13 12 11 12 -6z m718 -4 c3 -5 2
-12 -3 -15 -5 -3 -9 1 -9 9 0 17 3 19 12 6z m-665 -37 c0 -2 -9 0 -20 6 -11 6
-20 13 -20 16 0 2 9 0 20 -6 11 -6 20 -13 20 -16z m60 -30 c0 -2 -7 -4 -15 -4
-8 0 -15 4 -15 10 0 5 7 7 15 4 8 -4 15 -8 15 -10z m50 -18 c0 -3 -4 -8 -10
-11 -5 -3 -10 -1 -10 4 0 6 5 11 10 11 6 0 10 -2 10 -4z m95 -34 c-3 -3 -11 0
-18 7 -9 10 -8 11 6 5 10 -3 15 -9 12 -12z m225 4 c0 -3 -4 -8 -10 -11 -5 -3
-10 -1 -10 4 0 6 5 11 10 11 6 0 10 -2 10 -4z m-125 -15 c-9 -8 -36 -10 -30
-2 2 4 11 8 20 8 8 0 13 -3 10 -6z"/>
<path d="M4505 4819 c-4 -6 -5 -12 -2 -15 2 -3 7 2 10 11 7 17 1 20 -8 4z"/>
<path d="M4499 4778 c-1 -7 -1 -16 -1 -19 1 -3 -9 -12 -21 -18 -31 -18 -70
-68 -52 -68 8 0 12 4 10 8 -6 9 22 32 33 26 4 -3 14 -1 22 5 12 8 11 9 -3 4
-12 -4 -17 -2 -14 6 2 7 10 12 16 11 6 -2 11 0 12 5 0 4 2 17 5 30 2 12 2 22
-1 22 -3 0 -6 -6 -6 -12z"/>
<path d="M4330 4581 c0 -7 -5 -9 -12 -5 -7 5 -8 3 -3 -5 5 -9 10 -10 18 -2 6
6 8 14 4 18 -4 3 -7 1 -7 -6z"/>
<path d="M3631 4528 c5 -10 11 -18 12 -18 2 0 3 8 4 18 1 10 -5 19 -12 19 -10
0 -11 -5 -4 -19z"/>
<path d="M4070 4290 c-8 -5 -12 -12 -9 -15 4 -3 12 1 19 10 14 17 11 19 -10 5z"/>
<path d="M4028 4269 c-9 -9 -14 -20 -11 -23 4 -3 13 3 21 15 18 26 12 31 -10
8z"/>
<path d="M3965 4209 c1 -10 4 -21 8 -24 4 -3 5 -2 2 2 -3 3 0 12 5 18 7 9 6
14 -3 18 -9 3 -13 -2 -12 -14z"/>
<path d="M3160 4134 c0 -12 38 -50 44 -43 2 2 -7 15 -20 29 -13 13 -24 20 -24
14z"/>
<path d="M3105 4039 c-20 -22 -20 -22 0 -12 11 6 26 8 33 6 6 -3 12 0 12 7 0
6 -4 9 -9 6 -5 -4 -11 -1 -13 5 -2 6 -12 1 -23 -12z"/>
<path d="M3160 4040 c0 -5 5 -10 10 -10 6 0 10 5 10 10 0 6 -4 10 -10 10 -5 0
-10 -4 -10 -10z"/>
<path d="M2890 3796 c0 -9 -4 -14 -10 -11 -5 3 -10 1 -10 -5 0 -7 8 -9 20 -5
15 5 18 3 14 -9 -3 -9 -4 -16 -1 -16 13 0 13 28 1 45 -13 17 -14 17 -14 1z"/>
<path d="M2990 3850 c-8 -5 -12 -12 -9 -15 4 -3 12 1 19 10 14 17 11 19 -10 5z"/>
<path d="M3527 3734 c-4 -4 -16 -7 -28 -8 -22 -1 -41 -26 -19 -26 6 0 8 5 5
10 -3 6 -2 10 4 10 5 0 15 -8 20 -17 6 -10 11 -13 11 -6 0 6 7 19 16 27 8 9
11 16 6 16 -5 0 -12 -3 -15 -6z"/>
<path d="M3441 3649 c-30 -36 -51 -43 -51 -18 0 6 4 8 9 5 5 -3 14 1 21 9 9
10 9 15 1 15 -6 0 -11 -5 -11 -12 0 -6 -3 -8 -7 -5 -3 4 -12 2 -20 -4 -11 -10
-11 -13 2 -23 14 -10 14 -13 0 -34 -9 -12 -21 -20 -26 -17 -13 9 -11 26 2 23
6 -2 13 3 15 10 1 7 0 8 -3 2 -2 -5 -8 -8 -12 -5 -4 2 -25 -13 -45 -34 l-38
-38 29 4 c15 2 34 5 41 5 8 1 9 5 3 11 -7 7 -15 6 -26 -3 -8 -7 -15 -8 -15 -2
0 18 29 35 43 24 8 -7 19 -5 35 8 13 11 23 22 22 25 -1 11 28 34 35 27 4 -4 5
-2 4 3 -5 13 32 55 43 49 4 -3 8 0 8 5 0 22 -26 8 -59 -30z"/>
<path d="M2605 3520 c-3 -5 -1 -10 4 -10 6 0 11 5 11 10 0 6 -2 10 -4 10 -3 0
-8 -4 -11 -10z"/>
<path d="M2565 3510 c-3 -5 -1 -10 4 -10 6 0 11 5 11 10 0 6 -2 10 -4 10 -3 0
-8 -4 -11 -10z"/>
<path d="M2595 3489 c3 -4 -3 -12 -12 -18 -10 -6 -13 -11 -6 -11 6 0 18 7 27
15 17 17 30 20 21 5 -3 -5 -1 -10 5 -10 21 0 4 25 -18 26 -12 1 -19 -2 -17 -7z"/>
<path d="M2565 3439 c-4 -6 -5 -12 -2 -15 2 -3 7 2 10 11 7 17 1 20 -8 4z"/>
<path d="M2510 3259 c0 -5 5 -7 10 -4 6 3 10 8 10 11 0 2 -4 4 -10 4 -5 0 -10
-5 -10 -11z"/>
<path d="M3790 6766 c0 -2 7 -7 16 -10 8 -3 12 -2 9 4 -6 10 -25 14 -25 6z"/>
<path d="M3918 6663 c7 -3 16 -2 19 1 4 3 -2 6 -13 5 -11 0 -14 -3 -6 -6z"/>
<path d="M3055 6618 l-20 -21 23 12 c12 6 22 16 22 21 0 13 -2 12 -25 -12z"/>
<path d="M4080 6516 c0 -2 7 -9 15 -16 9 -7 15 -8 15 -2 0 5 -7 12 -15 16 -8
3 -15 4 -15 2z"/>
<path d="M1295 6360 c-3 -5 -1 -10 4 -10 6 0 11 5 11 10 0 6 -2 10 -4 10 -3 0
-8 -4 -11 -10z"/>
<path d="M6195 6070 c3 -5 8 -10 11 -10 2 0 4 5 4 10 0 6 -5 10 -11 10 -5 0
-7 -4 -4 -10z"/>
<path d="M605 4230 c-3 -5 -2 -10 4 -10 5 0 13 5 16 10 3 6 2 10 -4 10 -5 0
-13 -4 -16 -10z"/>
<path d="M5190 2730 c0 -5 7 -10 16 -10 8 0 12 5 9 10 -3 6 -10 10 -16 10 -5
0 -9 -4 -9 -10z"/>
<path d="M5350 2660 c0 -6 7 -10 15 -10 8 0 15 2 15 4 0 2 -7 6 -15 10 -8 3
-15 1 -15 -4z"/>
<path d="M4186 2135 c-3 -8 -1 -15 4 -15 6 0 10 7 10 15 0 8 -2 15 -4 15 -2 0
-6 -7 -10 -15z"/>
<path d="M4165 1931 c-3 -5 -1 -12 4 -15 5 -3 11 1 15 9 6 16 -9 21 -19 6z"/>
<path d="M2635 1550 c-3 -5 -2 -10 4 -10 5 0 13 5 16 10 3 6 2 10 -4 10 -5 0
-13 -4 -16 -10z"/>
</g>
</svg>
